<?xml version="1.0" encoding="iso-8859-1"?>
<!-- Generator: Adobe Illustrator 19.0.0, SVG Export Plug-In . SVG Version: 6.00 Build 0)  -->
<svg version="1.1" id="Capa_1" xmlns="http://www.w3.org/2000/svg" xmlns:xlink="http://www.w3.org/1999/xlink" x="0px" y="0px"
	 viewBox="0 0 512 512" style="enable-background:new 0 0 512 512;" xml:space="preserve">
<path style="fill:#D6E9FF;" d="M445.788,512H129.226c-21.519,0-39.026-17.507-39.026-39.026v-39.358L406.429,63.014h39.357
	c21.519,0,39.026,17.507,39.026,39.026v370.934C484.814,494.493,467.306,512,445.788,512z"/>
<path style="fill:#EDF6FF;" d="M382.774,448.986H66.213c-21.519,0-39.026-17.507-39.026-39.026V39.026
	C27.186,17.507,44.694,0,66.213,0h316.56c21.519,0,39.026,17.507,39.026,39.026V409.96
	C421.799,431.479,404.293,448.986,382.774,448.986z"/>
<path style="fill:#FFE475;" d="M343.416,331.599H105.57c-8.488,0-15.37-6.882-15.37-15.37V78.383c0-8.488,6.882-15.37,15.37-15.37
	h237.846c8.488,0,15.37,6.882,15.37,15.37v237.846C358.786,324.718,351.905,331.599,343.416,331.599z"/>
<path style="fill:#FFB726;" d="M159.589,199.36c-25.621,0-46.464-20.844-46.464-46.464s20.844-46.464,46.464-46.464
	s46.464,20.844,46.464,46.464S185.209,199.36,159.589,199.36z"/>
<path style="fill:#4FD9E0;" d="M358.786,316.229v-66.393c-4.039-0.947-7.004-2.673-10.969-4.992
	c-7.835-4.58-18.563-10.853-37.807-10.853c-19.243,0-29.972,6.273-37.805,10.853c-6.203,3.626-9.946,5.816-19.209,5.816
	c-9.262,0-13.007-2.189-19.208-5.816c-7.833-4.58-18.561-10.853-37.805-10.853c-19.243,0-29.971,6.273-37.805,10.854
	c-6.2,3.626-9.943,5.815-19.206,5.815c-9.262,0-13.007-2.189-19.208-5.816c-6.633-3.878-15.364-8.957-29.562-10.426v81.81
	c0,8.488,6.882,15.37,15.37,15.37h237.846C351.905,331.599,358.786,324.718,358.786,316.229z"/>
<path style="fill:#B5D9FF;" d="M445.788,63.014H406.43L226.546,273.827V512h219.241c21.519,0,39.026-17.507,39.026-39.026V102.04
	C484.814,80.521,467.306,63.014,445.788,63.014z"/>
<path style="fill:#D6E9FF;" d="M382.774,0H226.546v448.986h156.228c21.519,0,39.026-17.507,39.026-39.026V39.026
	C421.799,17.507,404.293,0,382.774,0z"/>
<path style="fill:#FFB726;" d="M343.416,63.014h-116.87v268.586h116.871c8.488,0,15.37-6.882,15.37-15.37V78.383
	C358.786,69.895,351.905,63.014,343.416,63.014z"/>
<path style="fill:#16A9C7;" d="M310.01,233.992c-19.243,0-29.972,6.273-37.805,10.853c-6.203,3.626-9.946,5.816-19.209,5.816
	c-9.262,0-13.007-2.189-19.208-5.816c-2.152-1.258-4.535-2.644-7.241-3.992v90.746h116.871c8.488,0,15.37-6.882,15.37-15.37v-66.393
	c-4.039-0.947-7.004-2.673-10.969-4.992C339.983,240.265,329.254,233.992,310.01,233.992z"/>
<g>
</g>
<g>
</g>
<g>
</g>
<g>
</g>
<g>
</g>
<g>
</g>
<g>
</g>
<g>
</g>
<g>
</g>
<g>
</g>
<g>
</g>
<g>
</g>
<g>
</g>
<g>
</g>
<g>
</g>
</svg>
