<svg xmlns="http://www.w3.org/2000/svg" xmlns:xlink="http://www.w3.org/1999/xlink" width="582.754" height="549.102" viewBox="0 0 582.754 549.102"><defs><clipPath id="a"><path d="M412.423-486.785c-9.363,4.436-39.919-6.407-39.919-6.407,15.771-.492,20.7-11.335,20.7-11.335-22.719,5.68-36.751-4.8-57.489-12.821,7.972-3.891,28.413-2.948,28.413-2.948-31.048-18.728-67.024-9.857-67.024-9.857l5.421-17.248s-4.436,9.856-28.091,16.263-23.656,27.105-23.656,27.105.22,10.067.493,9.856c.179,17.557,5.471,1.792,5.421.985,0,0,16.263,46.819,60.124,63.081s74.909-25.627,74.909-25.627L357.72-469.043c22.671,5.421,54.7-17.743,54.7-17.743"/></clipPath><clipPath id="b"><path d="M236.979-337.952l-59.139,95.608,16.756,7.885,48.789-97.086-6.407-6.407"/></clipPath><clipPath id="c"><path d="M318.787-381.814,334.558-403.5s33.019-1.479,40.9,16.756,31.047,97.577,19.22,103.985-51.253,3.943-51.253,3.943l-24.641-103"/></clipPath><clipPath id="d"><path d="M351.806-459.679c-3.132-10.021-10.589-7.207-15.643-4.393-2.9,1.615-5.008,3.229-5.055,2.421-1.347-.563-13.715-4.111-12.321-23.163,1.085-14.84-2.087-23.292-9.9-26.153-12.031-2.212-27.743,1.484-42.833,8.412-30.061,13.8.74,118.03.74,118.03l64.313-6.653-.987-48.789c18.235,10.843,25.949-6.064,21.684-19.712"/></clipPath><clipPath id="e"><path d="M270-478.653c0,11.024-7.06,19.96-15.771,19.96s-15.769-8.936-15.769-19.96,7.06-19.959,15.769-19.959S270-489.677,270-478.653"/></clipPath><clipPath id="f"><path d="M312.381-487.031c0,11.712-7.5,21.207-16.756,21.207s-16.756-9.495-16.756-21.207,7.5-21.207,16.756-21.207,16.756,9.495,16.756,21.207"/></clipPath><clipPath id="g"><path d="M264.577-449.823l45.34-11.335s16.263,52.732-9.364,57.167-35.976-45.832-35.976-45.832"/></clipPath><clipPath id="h"><path d="M263.591-391.671s-8.377,79.837-3.943,139.962l114.334-3.943L332.094-394.135l-68.5,2.464"/></clipPath><clipPath id="i"><path d="M261.127-386.742l-34.005,49.775,31.295,17.988,4.681-64.313-1.971-3.449"/></clipPath><clipPath id="j"><path d="M470.331-610.482c-.953,0-1.725-1.324-1.725-2.957s.772-2.956,1.725-2.956,1.724,1.323,1.724,2.956-.773,2.957-1.724,2.957m1.724-19.221L337.022-570.565l7.884,12.321,136.02-46.325L472.055-629.7"/></clipPath><clipPath id="k"><path d="M339.731-346.578l32.28-66.284L329.63-416.8l1.479,25.627,8.623,44.6"/></clipPath><clipPath id="l"><path d="M263.591-173.844S263.1-232,366.1-266.494s118.769-55.688,118.769-55.688l13.305,49.775L263.591-173.844"/></clipPath><clipPath id="m"><path d="M66.374-258.787l165.678,45.519s-2.957,12.813,20.7,10.349S272.955-218.2,272.955-218.2l232.61-86.737L602.16-113.228,367.576-89.078s2.957,6.9-17.248,8.379-24.149-14.292-24.149-14.292l-123.7-21.685L66.247-256.222l.127-2.565"/></clipPath></defs><g transform="translate(-39.772 629.704)"><path d="M412.423-486.785c-9.363,4.436-39.919-6.407-39.919-6.407,15.771-.492,20.7-11.335,20.7-11.335-22.719,5.68-36.751-4.8-57.489-12.821,7.972-3.891,28.413-2.948,28.413-2.948-31.048-18.728-67.024-9.857-67.024-9.857l5.421-17.248s-4.436,9.856-28.091,16.263-23.656,27.105-23.656,27.105.22,10.067.493,9.856c.179,17.557,5.471,1.792,5.421.985,0,0,16.263,46.819,60.124,63.081s74.909-25.627,74.909-25.627L357.72-469.043c22.671,5.421,54.7-17.743,54.7-17.743" fill="#153848"/><g clip-path="url(#a)"><path d="M412.423-486.785c-20.081,5.467-36.157,7.144-49.007,6.552a97.215,97.215,0,0,0,10.557-3.733c1.756-.744.3-3.749-1.369-3.269-7.317,2.1-14.6,4.073-22.02,5.521a64.372,64.372,0,0,1-15.183-4.847,86.175,86.175,0,0,0,19.815-3.663c.619-.191,2.905-2.271,1.452-1.847a84.359,84.359,0,0,1-25.345,3.377,41.458,41.458,0,0,1-14.836-14.056c6.172.831,12.309,1.916,18.425,3.324,9.313,2.145,18.613,4.257,28.117,2.067.363-.084-1.788-.423-2.349-.3-11.668,2.617-24.535-2.879-36.047-4.815q-4.35-.73-8.731-1.283A19.428,19.428,0,0,1,314.6-506.5s-.783.843-2.075,2.347c-4.969-.543-9.96-.9-14.953-1.015-1.233-.028-2.5.472-.461.589q7.4.426,14.715,1.248c-1.867,2.208-4.5,5.461-7.38,9.452q-2.32-.74-4.663-1.505c-.72-.235-3.248,1.715-2.541,2.1a44.128,44.128,0,0,0,5.119,2.364c-15.74,22.9-34.725,64.089,22.591,74.606C363.982-409.15,405.271-430.784,428-452.42c24.191-23.027,27.361-46.052-15.579-34.365" fill="#0e262f"/><path d="M341.913-510.625c-18.2-5.615-39.771-2.867-56.191,6.639-.384.223,1.055,2.617,1.571,2.368a86.08,86.08,0,0,1,26.992-8.279c9.875-1.215,19.439-.181,29.111,1.871.265.056-.757-2.375-1.483-2.6" fill="#0e262f"/><path d="M254.229-498.612c-1.356-.493-.5-20.875,14.907-29.323C292.053-540.5,293.53-540.5,293.53-540.5s-46.572,3.327-45.463,40.659l5.175,4.805.987-3.573" fill="#214d5c"/><path d="M301.037-549.432c-.34,8-7.077,12.957-12.825,17.471a43.991,43.991,0,0,0-7.573,7.22,34.381,34.381,0,0,0-5.072,8.909,30.18,30.18,0,0,0-2.195,10.927c0,.277.417-.031.433-.208a35.7,35.7,0,0,1,7.553-19.816c4.688-5.776,11.649-9.105,16.295-14.908,2.237-2.793,3.971-6.225,3.968-9.876,0-.363-.573.027-.584.281" fill="#214d5c"/><path d="M332.617-540.491c-1.972.492-3.9,1.251-5.831,1.892q-3.008,1-6.016,2c-3.6,1.2-7.225,2.368-10.767,3.745-6.395,2.487-12.647,5.809-17.213,11.052a21.15,21.15,0,0,0-4.993,9.117c-.043.2.236.076.277-.035a27.7,27.7,0,0,1,4.62-8.3,32.231,32.231,0,0,1,7.36-6.405c6.183-3.979,13.3-6.168,20.225-8.472l6.188-2.06c2.028-.675,4.117-1.261,6.092-2.08.175-.072.393-.543.057-.459" fill="#214d5c"/></g><path d="M236.979-337.954l-59.139,95.609,16.756,7.885,48.789-97.086-6.407-6.408" fill="#f796a9"/><g clip-path="url(#b)"><path d="M177.841-261.443s24.395,2.957,33.635,13.308-28.091,5.912-28.091,5.912l-6.653-14.784,1.109-4.436" fill="#e58b9e"/><path d="M226.63-334.257l17,9.609,3.325-7.392L229.85-342.951l-3.22,8.695" fill="#e58b9e"/></g><path d="M181.29-211.79s30.063-37.948,78.358-39.919,114.334-3.943,114.334-3.943L357.72-195.528s-135.526,0-176.43-16.263" fill="#1d424c"/><path d="M336.036-397.092l15.277-6.9s35.483,0,39.917,36.961-.985,33.02-.985,33.02l-54.209-63.083" fill="#d23236"/><path d="M318.787-381.814,334.558-403.5s33.019-1.479,40.9,16.756,31.047,97.577,19.22,103.985-51.253,3.943-51.253,3.943l-24.641-103" fill="#ed3637"/><g clip-path="url(#c)"><path d="M362.156-397.092c-.493,1.479-10.843,40.412-10.843,40.412l19.22,69-19.22,4.435-22.669-81.808,33.512-32.035" fill="#df333a"/></g><path d="M256.2-449.331s-14.785-10.348-14.292,3.451,7.392,21.191,19.22,20.205-4.928-23.656-4.928-23.656" fill="#e58b9e"/><path d="M351.806-459.679c-3.132-10.021-10.589-7.207-15.643-4.393-2.9,1.615-5.008,3.229-5.055,2.421-1.347-.563-13.715-4.111-12.321-23.163,1.085-14.84-2.087-23.292-9.9-26.153-12.031-2.212-27.743,1.484-42.833,8.412-30.061,13.8.74,118.03.74,118.03l64.313-6.653-.987-48.789c18.235,10.843,25.949-6.064,21.684-19.712" fill="#f796a9"/><g clip-path="url(#d)"><path d="M326.8-473.6l6.284,45.092,7.023-2.217-5.175-43.984L326.8-473.6" fill="#e58b9e"/><path d="M259.526-449.207c-1.633,0-2.957-2.317-2.957-5.175s1.324-5.175,2.957-5.175,2.957,2.316,2.957,5.175-1.324,5.175-2.957,5.175" fill="#f68597"/><path d="M315.5-459.387c-1.668,0-3.451-2.075-4.137-4.939-.749-3.127.091-6.008,1.877-6.436a1.954,1.954,0,0,1,.456-.053c1.668,0,3.449,2.075,4.137,4.939.749,3.127-.092,6.008-1.879,6.436a1.943,1.943,0,0,1-.455.053" fill="#f68597"/><path d="M267.287-390.438c-.369-1.109-18.111-69.119-12.936-102.754,0,0-7.023,54.335,10.349,102.754h2.587" fill="#fbc8d1"/></g><path d="M312.381-480.871l30.8,17.495" fill="#fff"/><path d="M270-478.653c0,11.024-7.06,19.96-15.769,19.96s-15.771-8.936-15.771-19.96,7.06-19.959,15.771-19.959S270-489.676,270-478.653" fill="#fbc8d5"/><g clip-path="url(#e)"><path d="M252.134-507.236c-.371,2.217,15.153,4.8,15.153,4.8l5.544,8.132s-35.483,8.871-35.483,32.9c0,0-8.5-31.048-2.217-35.484s17-10.348,17-10.348" fill="#fff"/></g><path d="M312.381-487.031c0,11.712-7.5,21.207-16.756,21.207s-16.756-9.495-16.756-21.207,7.5-21.207,16.756-21.207,16.756,9.495,16.756,21.207" fill="#fbc8d5"/><g clip-path="url(#f)"><path d="M314.6-506.5s-21.807-2.588-37.7,35.483l-5.421-34.5,28.584-13.8L314.6-506.5" fill="#fff"/></g><path d="M264.577-449.823l45.34-11.335s16.263,52.732-9.364,57.167-35.976-45.832-35.976-45.832" fill="#3a181f"/><g clip-path="url(#g)"><path d="M285.769-458.94s26.612,24.887,2.957,55.443c0,0,18.973,7.884,26.119-1.479s-.247-59.632-.247-59.632l-28.829,5.668" fill="#291117"/><path d="M272.215-454.506s1.479,9.611,10.349,8.132,31.788-11.088,31.788-11.088l-1.725-7.393-40.412,10.349" fill="#fff"/><path d="M317.8-422.226s-21.684,4.189-20.7,18.481,24.641-8.625,20.7-18.481" fill="#f14777"/></g><path d="M263.591-391.671s-8.377,79.837-3.943,139.962l114.334-3.943L332.094-394.135l-68.5,2.464" fill="#f19b3a"/><g clip-path="url(#h)"><path d="M320.038-392.815q-14.374,1.964-28.763,3.816c-9.6,1.24-19.332,2.061-28.851,3.808-1.245.228-3.675,2.4-1.033,2.255,9.531-.507,19.069-2.077,28.532-3.281q14.75-1.878,29.481-3.9c2.433-.333,3.992-3.369.633-2.695" fill="#732c3d"/><path d="M317.4-382.423c-4.992.259-10.021,1.351-14.976,2.016q-7.466,1-14.949,1.855-7.122.82-14.257,1.505c-4.365.424-10.317.025-14.265,2.02-1.207.611.011,2.407.92,2.628,4.431,1.083,9.433.133,13.943-.249,5.007-.424,10.008-.943,15-1.491s9.979-1.163,14.959-1.821c5.133-.681,10.551-1.052,15.557-2.385,2.78-.74.051-4.18-1.935-4.077" fill="#732c3d"/><path d="M323.549-370.71c-10.74,2.041-21.531,3.789-32.324,5.537q-8.522,1.38-17.045,2.741c-5.244.839-10.867,1.279-15.912,2.979-1.951.657-.267,2.9,1.159,2.909,5.433.037,10.953-1.177,16.311-2q8.892-1.372,17.775-2.807,8.526-1.376,17.044-2.789c5.005-.829,10.235-1.352,15.081-2.908,2.741-.88-.06-4.045-2.088-3.659" fill="#732c3d"/><path d="M330.4-352.148c-1.448-1.583-2.955-1.316-4.907-1.068-3.349.427-6.685,1.037-10.028,1.523q-9.318,1.352-18.669,2.48t-18.719,2.053c-6.68.656-13.507.881-20.128,1.985a2.345,2.345,0,0,0-.444.12c-5.671-6.1-12.48-11.409-18.559-17.095-1.115-1.043-5.509-.444-3.947,1.095,6.232,6.14,12.6,12.8,19.76,17.868a3.175,3.175,0,0,0,1.735.284,2.007,2.007,0,0,0,1.924,1.413c11.685.24,23.671-1.532,35.265-2.863q8.638-.99,17.251-2.173,4.306-.592,8.605-1.231,2.508-.372,5.013-.761,1.074-.166,2.148-.336c.243-.017.448-.033.629-.051l.124.056.3.1a2.535,2.535,0,0,0,2.751-.616l.187-.191c.717-.741.3-1.952-.293-2.6" fill="#732c3d"/><path d="M336.745-339.335c-1.655-1.091-3.979-1.971-5.6-.391l-.024.033q-18.926,3.524-37.891,6.845-10.132,1.766-20.277,3.473c-6.167,1.047-12.872,1.527-18.807,3.547-1.691.576,1.871,1.976,2.445,1.957,6.9-.208,13.889-1.847,20.687-2.981q9.786-1.636,19.561-3.348,19.914-3.468,39.784-7.18c1.384-.259,1.137-1.285.117-1.956" fill="#732c3d"/><path d="M347.372-325.114c-1.815-1.088-3.724-.628-5.588-.013-4.485,1.477-8.981,2.907-13.523,4.207q-12.372,3.54-25,6.068c-17.108,3.419-34.313,4.941-51.695,6.071-2.449.16.313,1.536,1.4,1.537,31.105.033,63.173-6.061,92.572-16.22a3.645,3.645,0,0,0,1.329.088l.3-.083c.261-.075.748-.2.807-.548.021-.123.041-.247.064-.371.057-.343-.451-.612-.656-.736" fill="#732c3d"/><path d="M365.851-306.829q-26.77,4.59-53.828,7.172c-17.756,1.673-35.528,2.317-53.331,3.2-1.129.056-3.452,2.452-3.5,2.452,34.868.429,70.265-3.8,104.629-9.605-.089.181-.031.285.369.173q1.074-.3,2.145-.6a7.353,7.353,0,0,0,3.1-1.709c.225-.236,1.477-1.269.415-1.087" fill="#732c3d"/><path d="M371.544-296.431c-39.411,7.676-79.021,12.559-118.9,16.947-3.131.344-.971,2.293,1.135,2.148,37.833-2.589,75.678-8.4,112.952-15.479a3.57,3.57,0,0,0,1.443.124c1.967-.493,3.932-.967,5.88-1.532,3.307-.96-.84-2.532-2.508-2.208" fill="#732c3d"/><path d="M386.26-276.337c-.459-.964-2.72-1.372-3.6-1.647-4.793-1.5-10.869-.307-15.8-.077q-20.008.94-39.936,3.036-19.91,2.094-39.677,5.344c-13.421,2.2-27.207,4.289-40.281,8.1a5.151,5.151,0,0,1,1.611.707,4.428,4.428,0,0,0,2.157.7c11.4-1.951,22.688-4.595,34.092-6.583q16.918-2.95,33.969-5.06t34.167-3.376q8.206-.608,16.421-1.019,4.284-.214,8.573-.376,1.574-.058,3.147-.108a19.7,19.7,0,0,0,3.423,1.145c.916.219,2.343.489,1.736-.785" fill="#732c3d"/><path d="M270.21-252.073a97.094,97.094,0,0,1,14.176-14.609l.439-.076q16.918-2.95,33.969-5.06t34.167-3.376q7.41-.548,14.828-.936l6.195,20.479L270.21-252.073m18.175-17.795A116.878,116.878,0,0,1,311.946-283.6c17.079-2.439,34.1-5.332,51.011-8.5l4.243,14.025c-.113.007-.227.013-.34.017q-20.008.94-39.936,3.036-19.336,2.032-38.539,5.157m36.409-18.641a176.593,176.593,0,0,1,36.951-7.6l.439,1.451q-18.662,3.43-37.389,6.152" fill="#cc7d3e"/><path d="M311.946-283.6c3.992-1.76,8.275-3.408,12.848-4.905q18.728-2.758,37.389-6.152l.773,2.557c-16.907,3.168-33.932,6.061-51.011,8.5" fill="#732c3d"/><path d="M284.386-266.682q1.914-1.6,4-3.185,19.192-3.118,38.539-5.157,19.918-2.094,39.936-3.036c.113,0,.227-.011.34-.017l.589,1.948q-7.418.388-14.828.936-17.12,1.266-34.167,3.376t-33.969,5.06l-.439.076" fill="#732c3d"/></g><path d="M261.127-386.742l-34.005,49.775,31.295,17.988,4.681-64.313-1.971-3.449" fill="#f19b3a"/><g clip-path="url(#i)"><path d="M257.155-355.323a54.678,54.678,0,0,0-14.815-13.225c-2.063-1.267-1.765,2.3-.715,3.193,2.543,2.153,5.215,4.141,7.695,6.372,2.305,2.075,4.4,4.419,6.82,6.361,1.724,1.387,1.644-1.844,1.015-2.7" fill="#732c3d"/><path d="M258.231-336.227c1.291.656,4.037-.363,2.829-1.936-3.476-4.529-7.609-8.555-11.491-12.74-3.919-4.227-7.647-8.879-11.987-12.675-1.107-.968-4.372-.493-3.159,1.395,3.173,4.935,7.593,9.292,11.533,13.619A136.778,136.778,0,0,0,257.4-336.9c-3.108-2.449-6.389-4.743-9.439-7.12-5.2-4.051-10.372-8.139-15.795-11.888-.752-.52-4.056.593-3.915.72,4.763,4.247,9.839,8.128,14.861,12.061,5.115,4,10.116,8.472,15.624,11.92.759.475,4.484-.553,4.256-.783a57.615,57.615,0,0,0-4.763-4.24" fill="#732c3d"/><path d="M253.357-329.527c-7.711-4.621-15.473-9.381-23.507-13.424-.733-.368-3.872.477-3.519.721,7.14,4.925,14.913,9.153,22.441,13.456a4.634,4.634,0,0,0,2.984.193c.164-.033,2.217-.577,1.6-.947" fill="#732c3d"/></g><path d="M254.229-386.742l10.348-5.915L257.923-290.15s-18.972-71.951-3.695-96.592" fill="#ed3637"/><path d="M295.625-467.3c-8.424,0-15.277-8.851-15.277-19.728s6.853-19.728,15.277-19.728,15.277,8.849,15.277,19.728S304.049-467.3,295.625-467.3Zm-41.4,7.131c-7.881,0-14.293-8.291-14.293-18.481s6.412-18.481,14.293-18.481,14.291,8.291,14.291,18.481S262.109-460.172,254.229-460.172Zm89.684-4.489L313.4-481.992a27.937,27.937,0,0,0,.459-5.039c0-12.509-8.18-22.685-18.235-22.685S277.39-499.54,277.39-487.031a27.543,27.543,0,0,0,1.129,7.857,7.759,7.759,0,0,0-2.507-.329,9.758,9.758,0,0,0-4.547,1.389c0-.18.011-.359.011-.54,0-11.821-7.737-21.439-17.248-21.439s-17.249,9.617-17.249,21.439,7.737,21.437,17.249,21.437c8.283,0,15.22-7.3,16.872-16.989a8.478,8.478,0,0,1,5-2.341,5.634,5.634,0,0,1,4.184,1.859l.035-.036c3.252,6.24,8.9,10.379,15.305,10.379,7.783,0,14.439-6.1,17.051-14.657l29.777,16.912,1.46-2.571" fill="#171717"/><path d="M260.142-477.668c0,2.043-1.324,3.7-2.957,3.7s-2.956-1.653-2.956-3.7,1.323-3.7,2.956-3.7,2.957,1.656,2.957,3.7" fill="#3a181f"/><path d="M297.6-484.814c0,2.041-1.324,3.7-2.957,3.7s-2.957-1.655-2.957-3.7,1.324-3.7,2.957-3.7,2.957,1.655,2.957,3.7" fill="#3a181f"/><path d="M282.865-473.835c.785,2.605-2.061,5.771-6.361,7.068s-8.423.237-9.209-2.368,2.063-5.771,6.361-7.068,8.423-.237,9.209,2.368" fill="#f35b7d"/><path d="M470.331-610.484c-.953,0-1.725-1.323-1.725-2.956s.772-2.956,1.725-2.956,1.724,1.323,1.724,2.956S471.283-610.484,470.331-610.484Zm1.724-19.22L337.022-570.565l7.884,12.321,136.02-46.325L472.055-629.7" fill="#fff"/><g clip-path="url(#j)"><path d="M349.342-574.508l128.626-53.717,7.885,19.22L353.778-564.157l-1.479,6.9,141.44-49.775L478.953-639.56l-135.525,62.1,5.913,2.956" fill="#d7d9d6"/></g><path d="M343.922-411.876c1.477,0,.984-131.582.984-131.582l-20.7,1.479,11.828,129.61,7.885.493" fill="#f796a9"/><path d="M338.994-539.516l5.912-3.943s15.771-10.843,8.872-27.107-38.44-25.133-45.832.987,17.741,31.54,17.741,31.54l13.307-1.477" fill="#f796a9"/><path d="M339.731-346.578l32.28-66.284L329.63-416.8l1.479,25.627,8.623,44.6" fill="#f19b3a"/><g clip-path="url(#k)"><path d="M407.6-412.706c-14.711-.907-29.648-.072-44.389-.229-14.543-.156-29.212-1.231-43.741-.853-.171,0,2.343,2.439,3.3,2.523,14.472,1.259,29.228,1.035,43.747,1.207q11,.132,22,.123c7.392,0,14.971.34,22.328-.448.225-.024-2.328-2.264-3.251-2.321" fill="#732c3d"/><path d="M390.644-396.939q-1.042-.346-2.081-.708a4.167,4.167,0,0,0-2.788.409q-14.156-.27-28.26-1.669c-10.869-1.1-21.561-3.372-32.4-4.6.275-.541.137-1.188-.7-1.188a1.223,1.223,0,0,0-1.187,1.5c-1.173.559-1.888,1.639-.025,2.191,10.265,3.049,21.416,4.087,32.031,5.221,11.076,1.184,22.2,1.805,33.337,1.928,1.351.015,4.763-2.18,2.073-3.084" fill="#732c3d"/><path d="M374.371-380.774c-.7-.645-2.989-1.337-3.727-.321l-.177.245a.976.976,0,0,0-.2.767c-.133-.036-.349-.045-.855-.128a29.6,29.6,0,0,0-3.216-.129c-1.939-.089-3.876-.2-5.809-.369a61.227,61.227,0,0,1-11.905-2.068c-8.08-2.377-12.959-7.279-18.835-12.92-.609-.584-3.719-1.476-3.008.323,3.744,9.465,16.083,14.615,25.227,16.6a101.407,101.407,0,0,0,17.244,1.835c2.344.1,9.381-.005,5.264-3.829" fill="#732c3d"/><path d="M356.9-369.814c-10.313-.1-19-4.509-24.856-13.055-.641-.935-3.4-2.371-2.255-.136,5.451,10.628,17.777,18.052,29.781,17.331,1.577-.095-1.165-4.125-2.671-4.14" fill="#732c3d"/></g><path d="M330.615-401.527l-20.7,4.435s-2.464,78.853,61.109,99.55L369.055-320.7s-37.947-42.383-38.44-80.822" fill="#ed3637"/><path d="M314.474-393.151c.088-.221-.2-.145-.261,0a4.878,4.878,0,0,0,.1,4.481l.2-.143a6.044,6.044,0,0,1-.041-4.335" fill="#bc272d"/><path d="M314.935-385.372c-.029-.167-.348.071-.336.2a19.775,19.775,0,0,0,.561,3.952c.047.151.272-.075.273-.163a21.482,21.482,0,0,0-.5-3.991" fill="#bc272d"/><path d="M316.034-375.992c.013-.237-.368.023-.387.185a6.868,6.868,0,0,0,.516,3.963c.083.151.337-.065.317-.189a18.4,18.4,0,0,1-.447-3.959" fill="#bc272d"/><path d="M316.979-368.616c-.056-.156-.311.08-.284.2a13.51,13.51,0,0,0,.943,3.48c.1.183.385-.081.372-.221a14.468,14.468,0,0,0-1.031-3.463" fill="#bc272d"/><path d="M318.922-361.722c-.1-.2-.439.1-.381.273a15.479,15.479,0,0,0,1.467,3.5c.111.167.384-.173.355-.3a16.057,16.057,0,0,0-1.44-3.467" fill="#bc272d"/><path d="M322.259-352.3a16.253,16.253,0,0,1-.824-2.032c-.055-.165-.324.083-.3.213.263,1.305.783,3.172,1.879,4.037.133.105.38-.133.325-.276-.257-.687-.757-1.279-1.081-1.943" fill="#bc272d"/><path d="M324.446-347.962c-.085-.156-.371.087-.307.22a20.866,20.866,0,0,0,2,3.972c.111.144.367-.152.328-.277a21.884,21.884,0,0,0-2.019-3.915" fill="#bc272d"/><path d="M330.285-337.131c-.377-.587-.887-1.067-1.244-1.673a7.6,7.6,0,0,1-.784-1.709c-.048-.161-.337.077-.3.217a5.348,5.348,0,0,0,2.065,3.48c.141.08.347-.193.267-.315" fill="#bc272d"/><path d="M333.337-331.426c-.359-.423-.749-.82-1.1-1.247-.1-.123-.383.151-.281.281.324.417.611.867.929,1.288a5.553,5.553,0,0,0,1.02,1.2c.14.1.413-.14.345-.293a5.366,5.366,0,0,0-.911-1.228" fill="#bc272d"/><path d="M338.029-326.01c-.447-.421-.931-.8-1.373-1.227l-.259.257c.425.443.807.927,1.229,1.372.341.361.771.993,1.269,1.1l.229-.231c-.1-.5-.735-.927-1.1-1.269" fill="#bc272d"/><path d="M345.02-318.322a3.822,3.822,0,0,0-1.083-1.036c-.444-.343-.9-.66-1.355-.993-.131-.1-.4.175-.28.28.42.363.825.739,1.255,1.093a4.082,4.082,0,0,0,1.268.852l.195-.2" fill="#bc272d"/><path d="M348-315.969c-.16-.064-.447.265-.26.361a9.561,9.561,0,0,1,1.964,1.316c.553.488.984,1.08,1.512,1.588.12.115.373-.139.317-.269a6.423,6.423,0,0,0-3.533-3" fill="#bc272d"/><path d="M358.835-309.062c-.477-.207-1-.295-1.485-.5a5.587,5.587,0,0,1-1.472-.92c-.129-.112-.417.177-.295.295a4.523,4.523,0,0,0,3.035,1.489c.121-.005.413-.277.217-.363" fill="#bc272d"/><path d="M367.2-304.619a22.183,22.183,0,0,0-3.976-1.375c-.145-.041-.405.256-.232.324a23.229,23.229,0,0,0,3.985,1.361c.131.025.393-.22.223-.311" fill="#bc272d"/><path d="M375.04-303.138a11.2,11.2,0,0,1-3.907-.453c-.151-.053-.423.259-.243.339a5.671,5.671,0,0,0,4.037.419c.089-.025.311-.307.112-.3" fill="#bc272d"/><path d="M380.48-302.658a3.69,3.69,0,0,0-.7-.073c-.257.009-.509.041-.767.056-.167.011-.464.392-.2.411s.521.049.785.056a4.406,4.406,0,0,0,.745-.079c.139-.019.365-.335.136-.371" fill="#bc272d"/><path d="M327.267-398.188c-.031-.171-.356.071-.344.205a24.562,24.562,0,0,0,.644,4.436c.047.159.291-.076.291-.173a26.517,26.517,0,0,0-.591-4.468" fill="#bc272d"/><path d="M328.9-387.382c-.06-.173-.375.084-.328.235a23.363,23.363,0,0,0,1.491,4.42c.071.131.289-.057.273-.164a25.661,25.661,0,0,0-1.436-4.491" fill="#bc272d"/><path d="M331.375-378.5c-.045-.157-.323.076-.293.211a16.5,16.5,0,0,0,.889,3.473c.069.149.3-.068.293-.176a18.17,18.17,0,0,0-.889-3.508" fill="#bc272d"/><path d="M335.655-367.128a12.728,12.728,0,0,1-1.009-1.337,3.708,3.708,0,0,1-.4-1.6c0-.215-.339.016-.344.165-.04,1.068.369,2.649,1.485,3.088.145.057.355-.183.267-.313" fill="#bc272d"/><path d="M336.783-364.162c-.031-.2-.344.011-.327.157a5.582,5.582,0,0,0,1.392,3.532l.28-.237a14.564,14.564,0,0,1-1.345-3.452" fill="#bc272d"/><path d="M342.075-353.316a13.934,13.934,0,0,1-1.528-1.3,4.086,4.086,0,0,1-.86-2.128c-.015-.165-.251.016-.253.123-.049,1.417.8,3.433,2.4,3.632l.237-.329" fill="#bc272d"/><path d="M347.994-346.463a17.435,17.435,0,0,0-3.365-3.048c-.123-.093-.379.153-.269.269a17.806,17.806,0,0,0,3.428,3.023l.207-.244" fill="#bc272d"/><path d="M354.984-341.172a16.221,16.221,0,0,0-3.047-1.892c-.155-.091-.46.264-.272.383a17.03,17.03,0,0,0,3.039,1.839c.135.048.408-.207.28-.329" fill="#bc272d"/><path d="M361.275-338.077a12.51,12.51,0,0,0-2.96-.981c-.148-.045-.407.264-.233.327a13.923,13.923,0,0,0,2.992.992c.135.015.356-.243.2-.337" fill="#bc272d"/><path d="M367.664-336.207a5.468,5.468,0,0,1-2.927-.425c-.168-.092-.488.285-.287.4a3.54,3.54,0,0,0,3.12.395c.1-.041.329-.373.093-.371" fill="#bc272d"/><path d="M371.476-335.622a1.21,1.21,0,0,1-1.259.365c-.192-.068-.536.32-.311.432.6.3,1.66.053,1.805-.705.031-.16-.135-.173-.236-.092" fill="#bc272d"/><path d="M368.706-391.327a5.389,5.389,0,0,0-.956-.768c-.333-.244-.673-.476-1.009-.716-.129-.092-.4.18-.273.273a11.076,11.076,0,0,0,2.017,1.471l.221-.26" fill="#bc272d"/><path d="M370.579-385.347c-.053-.172-.349.084-.317.227a24.04,24.04,0,0,0,1.135,4.405c.08.183.379-.083.363-.216a25.733,25.733,0,0,0-1.18-4.416" fill="#bc272d"/><path d="M372.207-378c-.064-.191-.392.093-.353.253a13.544,13.544,0,0,0,1.008,3.433c.087.153.324-.067.315-.188a15.031,15.031,0,0,0-.969-3.5" fill="#bc272d"/><path d="M374.128-372.062c-.072-.152-.34.079-.289.208.237.637.437,1.288.692,1.919a5.053,5.053,0,0,0,.784,1.575l.319-.231a11.805,11.805,0,0,0-1.505-3.471" fill="#bc272d"/><path d="M376.5-366.124c-.027-.133-.279.056-.268.159a15.884,15.884,0,0,0,.619,3.953c.059.148.268-.073.271-.161a17.626,17.626,0,0,0-.621-3.951" fill="#bc272d"/><path d="M378.1-358.236c.007-.2-.311,0-.325.119a6.464,6.464,0,0,0,.452,4.037c.108.176.4-.075.38-.228a26.339,26.339,0,0,1-.507-3.928" fill="#bc272d"/><path d="M379.072-351.822c.017-.171-.276,0-.292.108a5.875,5.875,0,0,0,.472,4.016c.1.168.349-.089.32-.229a13.2,13.2,0,0,1-.5-3.895" fill="#bc272d"/><path d="M380.108-345.447c-.009-.265-.416.021-.423.2-.012.363-.032.724-.049,1.085a2.005,2.005,0,0,0,.052.935c.1.217.381-.088.42-.2a6.347,6.347,0,0,0,0-2.021" fill="#bc272d"/><path d="M388.362-318.322c-.093-.173-.4.092-.339.243a20.316,20.316,0,0,0,2.139,4.379l.257-.219a21.406,21.406,0,0,0-2.057-4.4" fill="#bc272d"/><path d="M390.9-310.466c-.064-.152-.339.076-.288.207a9.321,9.321,0,0,0,1.037,2.449l.189-.136a10.468,10.468,0,0,0-.939-2.52" fill="#bc272d"/><path d="M392.856-305c0-.181-.291.012-.293.141-.005.363-.031.725-.055,1.087a2.447,2.447,0,0,0,.04.931c.063.175.3-.073.327-.159a7.561,7.561,0,0,0-.019-2" fill="#bc272d"/><path d="M393.9-299.3l0-.009a.807.807,0,0,0-.04-.323l-.016-.016-.017-.017-.293.191a1.127,1.127,0,0,0-.04.361l0,.005.025.064,0,0,0,0c.1.092.372-.092.368-.263" fill="#bc272d"/><path d="M255.353-384.887c-.059-.193-.379.1-.351.252a5.311,5.311,0,0,1-.421,2.9c-.085.245.26.089.327.005a3.531,3.531,0,0,0,.445-3.153" fill="#bc272d"/><path d="M253.442-377.475c-.007-.251-.395.019-.4.192a15.249,15.249,0,0,0,.063,3.453c.029.145.264-.061.276-.133a17.757,17.757,0,0,0,.061-3.512" fill="#bc272d"/><path d="M252.45-370.079c-.012-.247-.379.023-.387.185a18.823,18.823,0,0,0,.02,3.933c.036.212.323,0,.341-.125a20.917,20.917,0,0,0,.025-3.993" fill="#bc272d"/><path d="M252.465-363.187c-.011-.265-.409.023-.416.2-.019.448-.037.9-.045,1.348a3.776,3.776,0,0,0,.055,1.157c.064.215.375-.091.4-.192a9.738,9.738,0,0,0,.008-2.515" fill="#bc272d"/><path d="M252.091-357.731a2.278,2.278,0,0,0,.041,3.144l.243-.205a2.57,2.57,0,0,1,.025-2.825c.215-.272-.144-.316-.309-.113" fill="#bc272d"/><path d="M252.049-351.3a1.433,1.433,0,0,1,.32-1.324c.149-.151,0-.3-.148-.148a2.124,2.124,0,0,0-.667,1.325c-.043.413.089,1.24.585,1.336.12.023.317-.115.3-.253-.053-.333-.313-.591-.387-.936" fill="#bc272d"/><path d="M251.975-344.959a2.7,2.7,0,0,1-.033-1.393c.057-.2-.24-.053-.279.069a3.06,3.06,0,0,0-.171,1.468c.063.389.209.975.6,1.141l.272-.232a7.882,7.882,0,0,0-.391-1.053" fill="#bc272d"/><path d="M252.434-339.46c.039-.219-.261-.059-.293.073a2.621,2.621,0,0,0,.464,2.563c.119.107.333-.127.292-.249a4.777,4.777,0,0,1-.463-2.387" fill="#bc272d"/><path d="M252.877-334.07c.007-.148-.231,0-.244.089a3.821,3.821,0,0,0,.5,3.048c.105.128.307-.135.284-.241a11.475,11.475,0,0,1-.54-2.9" fill="#bc272d"/><path d="M253.909-327.194c0-.216-.345.013-.347.167a14.117,14.117,0,0,0,0,3c.037.187.34-.079.356-.173a16.281,16.281,0,0,0-.005-2.995" fill="#bc272d"/><path d="M254.407-320.79c-.008-.228-.353.017-.36.172-.02.629-.052,1.259-.064,1.888a3.687,3.687,0,0,0,.1,1.579c.069.151.264-.06.289-.139a10.921,10.921,0,0,0,.035-3.5" fill="#bc272d"/><path d="M257.534-322.629a20.4,20.4,0,0,0-.6,3.428c-.033.243.292.067.324-.081a18.672,18.672,0,0,0,.617-3.473c0-.228-.313.031-.343.127" fill="#bc272d"/><path d="M258.278-332.1c.055-.224-.243-.057-.293.036a6.005,6.005,0,0,0-.431,4.067c.031.153.324-.063.308-.183a10.291,10.291,0,0,1,.416-3.92" fill="#bc272d"/><path d="M257.933-338.414a19.722,19.722,0,0,0-.527,3.491c-.021.213.332,0,.357-.131a17.768,17.768,0,0,0,.515-3.485c0-.229-.316.025-.345.125" fill="#bc272d"/><path d="M258.343-345.428c-.035-.209-.323,0-.34.125a19.185,19.185,0,0,0,0,3.489c.008.22.337-.019.343-.164a17.349,17.349,0,0,0,0-3.451" fill="#bc272d"/><path d="M258.625-352.7a17.457,17.457,0,0,0-.621,3.509c-.027.231.364,0,.392-.144a14.861,14.861,0,0,0,.468-3.452c-.007-.163-.217.021-.239.087" fill="#bc272d"/><path d="M259.327-357.788c-.033-.179-.329.073-.344.167a16.091,16.091,0,0,0,0,3c.008.225.349-.019.355-.171a14.408,14.408,0,0,0-.007-2.995" fill="#bc272d"/><path d="M259.077-364.53a18.7,18.7,0,0,0-.637,3.445c-.033.249.3.071.333-.083a16.251,16.251,0,0,0,.544-3.451c0-.161-.217.024-.24.088" fill="#bc272d"/><path d="M260.279-371.506c.064-.183-.2-.081-.255,0a5.651,5.651,0,0,0-.776,4.1c.036.22.359-.013.347-.167a9.374,9.374,0,0,1,.684-3.932" fill="#bc272d"/><path d="M260.427-376.9a12.791,12.791,0,0,0-.548,2.5c-.041.256.3.065.343-.085a11.155,11.155,0,0,0,.505-2.493c0-.188-.268-.008-.3.075" fill="#bc272d"/><path d="M260.949-382.312a13.157,13.157,0,0,0-.557,2.491c-.048.236.284.064.321-.08a11.232,11.232,0,0,0,.584-2.5c0-.221-.309-.007-.348.087" fill="#bc272d"/><path d="M263.007-389.3a4.212,4.212,0,0,0-1.251,3.649c.029.237.381-.016.375-.18a5.177,5.177,0,0,1,1.123-3.315c.16-.235-.076-.3-.247-.155" fill="#bc272d"/><path d="M445.443-367.03s-2.464,66.531-89.2,79.837-105.957,69-105.957,69-31.761-33.365-76.386-41.4c-49.282-8.871-63.081-47.311-63.081-47.311-7.244,22.537,2.929,49.013,6.9,57.968a98.046,98.046,0,0,0-22.209,11.02c-.128.084-.164.391.046.267a125.367,125.367,0,0,1,22.378-10.8c.769,1.708,1.258,2.659,1.258,2.659l144.89,57.168,207.478-90.68-26.12-87.722" fill="#fff"/><path d="M82.234-243.331s49.282-61.6,167.066,31.047c0,0,21.192-38.932,122.22-70.472s104.972-61.111,104.972-61.111l5.42,85.258-213.883,76.88-185.794-61.6" fill="#bccbce"/><path d="M263.591-173.844S263.1-232,366.1-266.494s118.769-55.688,118.769-55.688l13.307,49.775L263.591-173.844" fill="#fff"/><g clip-path="url(#l)"><path d="M484.1-312.151c-.041-.272-.328-.125-.46-.011-9.941,8.7-21.705,14.931-33.771,20.14-12.888,5.565-26.143,10.3-39.256,15.3q-20.774,7.92-41.545,15.855c-11.743,4.511-23.457,9.189-34.624,15.012-10.86,5.661-21.257,12.443-30.04,21.035-1.087,1.063-2.139,2.161-3.171,3.277-.188.2,0,.4.195.195a121.025,121.025,0,0,1,30.063-22.443c11.053-6.017,22.719-10.815,34.439-15.353,13.605-5.268,27.263-10.4,40.9-15.6,13.287-5.065,26.685-9.909,39.812-15.379,11.925-4.968,23.661-10.761,33.828-18.824,1.048-.831,2.072-1.688,3.083-2.563l2.772,18.005c.059.377.649-.017.607-.291q-1.412-9.182-2.827-18.363" fill="#bccbce"/></g><path d="M229.09-204.247c-2.753-8.753-9.227-15.823-16.451-21.223-7.7-5.753-16.451-9.927-25.279-13.628-10.607-4.449-21.608-8.149-33-9.941a80.037,80.037,0,0,0-30.943.837,58.825,58.825,0,0,0-25.547,12.867q-1.361,1.21-2.612,2.529c-.276.291-.006.567.281.28,14.415-14.385,35.436-18.78,55.151-16.38,11.339,1.379,22.337,4.787,32.912,9.02,8.972,3.592,17.911,7.617,25.919,13.08a59.768,59.768,0,0,1,11.345,9.836,42.935,42.935,0,0,1,7.819,13.012c.083.213.461-.105.4-.289" fill="#fff"/><path d="M207.8-208.1c-4.861-11.54-14.771-20.412-26.225-25.191-13.72-5.724-29.34-5.549-43.545-1.793-7.3,1.929-14.54,4.951-20,10.308-.181.177-.008.347.175.176,5.1-4.753,11.558-7.616,18.193-9.505a78.025,78.025,0,0,1,21.645-3.055c13.449.059,26.831,4.192,37.092,13.075a44.877,44.877,0,0,1,12.083,16.405c.128.3.7-.157.585-.42" fill="#fff"/><path d="M472.4-321.206c-.036-.255-.34-.147-.459-.011-10.749,12.343-25.195,20.7-40.277,26.649C414.4-287.757,396.156-284,378.323-279.043a259.014,259.014,0,0,0-45,16.853A198.784,198.784,0,0,0,293.853-236.9a165.579,165.579,0,0,0-16.871,16.109q-3.816,4.208-7.315,8.695a44.274,44.274,0,0,0-6.447,10.523,22.869,22.869,0,0,0-1.464,5.555c-.032.247.311.075.335-.085,1.291-8.42,7.3-15.369,12.693-21.6A162.737,162.737,0,0,1,291.23-234.13a194.206,194.206,0,0,1,39.193-26.089,250.459,250.459,0,0,1,44.62-17.361c17.608-5.056,35.644-8.7,52.871-15.027,14.725-5.405,29.047-12.884,40.3-23.988,1.263-1.247,2.472-2.541,3.647-3.871l1.548,10.793c.053.379.647-.017.607-.291q-.806-5.622-1.612-11.243" fill="#fff"/><path d="M66.374-258.786l165.678,45.517s-2.957,12.813,20.7,10.349S272.955-218.2,272.955-218.2l232.61-86.737L602.16-113.228,367.576-89.078s2.957,6.9-17.248,8.379-24.149-14.292-24.149-14.292l-123.7-21.684L66.247-256.222l.127-2.564" fill="#173b4c"/><g clip-path="url(#m)"><path d="M60.753-258.053l166.319,49.9L326.179-94.992l10.663,24.325,29.937-7.761.8-10.651-90.609-125.73L514.248-302.4,496.508-326.8,59.644-276.9l1.109,18.848" fill="#112c38"/></g><path d="M206.553-563.057c-1.367-.293-2.729-.6-4.093-.9s-2.719-.6-4.083-.881c-.691-.14-1.383-.275-2.076-.4a5.372,5.372,0,0,0-1.129-.059c.032-.131.067-.259.1-.389a10.747,10.747,0,0,0,2.329.339.173.173,0,0,0,.055-.337,10.628,10.628,0,0,0-2.283-.4c.456-1.779.943-3.548,1.553-5.268a6.1,6.1,0,0,0,2.136.3c.185-.015.263-.288.056-.345a12.563,12.563,0,0,0-2.053-.335c.048-.132.095-.263.144-.395,4.992.936,9.975,1.747,14.912,2.957-.02.161-.051.321-.073.483-.54-.152-1.093-.265-1.633-.389l-.051.168c.537.179,1.084.377,1.636.531-.1.631-.213,1.257-.349,1.876-.259,1.18-.573,2.345-.915,3.5-1.437-.353-2.895-.611-4.339-.932-.168-.039-.251.22-.079.26,1.439.333,2.863.733,4.308,1.037-.04.139-.081.277-.123.416a36.71,36.71,0,0,0-3.951-.845Zm2.159,6.367q-1.886,5.762-3.768,11.525l-2.1,6.425c-.185.569-.363,1.144-.547,1.716a4.247,4.247,0,0,0-.024-.653c-.053-.431-.188-1.287-.657-1.5a.538.538,0,0,0-.545.057c.349-.951.677-1.912,1.017-2.859.681-1.9,1.456-3.793,2.009-5.733a.2.2,0,0,0-.389-.119c-.78,1.792-1.367,3.684-2.027,5.523-.413,1.155-.859,2.312-1.256,3.481.069-.632.079-1.385-.667-1.581-.9-.235-1.861.743-2.4,1.364a108.426,108.426,0,0,0,3.713-12.66.172.172,0,0,0-.329-.1c-1.331,4.147-2.388,8.365-3.736,12.505.009-.256.015-.512.005-.765-.023-.757-.227-1.791-1.123-1.937-.923-.152-1.809.943-2.323,1.548a9.958,9.958,0,0,0-.887,1.237c.6-2.133,1.3-4.231,1.928-6.355.063-.213-.235-.291-.32-.1a29.843,29.843,0,0,0-1.655,5.265l-.025-.139a1.534,1.534,0,0,0-1.385-1.311,3.642,3.642,0,0,0-2.293,1.491,11.468,11.468,0,0,0-.884,1.091c.991-3.325,1.848-6.7,2.784-10.036,1.077-3.844,2.156-7.687,3.2-11.539.369-1.363.707-2.744,1.052-4.124a6,6,0,0,0,1.369.4l1.649.364c-1.2,4.5-2.489,9.069-3.352,13.649-.049.256.317.384.4.121,1.365-4.468,2.344-9.123,3.372-13.68h0c1.361.3,2.72.612,4.08.917.4.091.795.176,1.192.265l-.027.051c-.839,2.911-1.583,5.845-2.324,8.781-.063.243.3.359.373.115.823-2.913,1.643-5.828,2.369-8.768l0-.091c.832.187,1.663.376,2.5.556.156.033.315.069.472.105-.331,1.1-.6,2.212-.856,3.328-.285,1.24-.672,2.48-.9,3.731a.179.179,0,0,0,.341.1c.933-2.2,1.181-4.749,1.779-7.075a16.541,16.541,0,0,0,2.781.5c-.513,1.641-1.068,3.271-1.6,4.9Zm-9.087,23.713a45.367,45.367,0,0,0-4.409,3.105,3.722,3.722,0,0,0-2.281-2.553,3,3,0,0,0-3.007,1.085l-2.116-6.3-.056-.109a18.064,18.064,0,0,1,1.38-1.932,4.2,4.2,0,0,1,1.776-1.457c1.873-.463.625,3.071.812,3.989a.326.326,0,0,0,.623.021,11.129,11.129,0,0,1,1.145-2.141c.352-.513,1-1.532,1.617-1.8,1.675-.719,1.288,1.707,1.232,2.409a17.038,17.038,0,0,1-.34,2.233c-.043.164-.081.329-.112.5-.071.383.5.575.591.181.049-.2.095-.405.139-.611a5.769,5.769,0,0,1,.683-1.575c.309-.487,1.143-1.652,1.805-1.776,1.284-.241.559,1.888.456,2.343a15.467,15.467,0,0,1-.8,2.459c-.129.317.4.565.553.255.177-.361,1.78-4.013,2.069-3.9.243.093.295,1.149.293,1.337a19.2,19.2,0,0,1-.329,2.508,5.5,5.5,0,0,1-1.727,1.727Zm-7.977,6.756q-.744-2.214-1.487-4.427c.795-.635,1.507-1.475,2.683-1.064s1.293,1.489,1.723,2.416a28.912,28.912,0,0,0-2.919,3.075Zm11.892-53.64a7.367,7.367,0,0,1,4.9-.688c2.012.507,2.808,2.427,3.32,4.252a17.273,17.273,0,0,1,.44,6.42,108.855,108.855,0,0,0-14.765-2.819,13.232,13.232,0,0,1,6.1-7.165Zm8.868,13.428c.117-.551.227-1.176.321-1.845l.02-.141c.727-5.367.341-13.617-6.437-12.991-5.068.468-7.86,4.417-9.619,8.807l0,.007a51.576,51.576,0,0,0-1.971,6.337c-1.22,4.768-2.531,9.511-3.843,14.255-1.293,4.68-2.713,9.372-3.677,14.135a.325.325,0,0,0-.164.417q2.038,6.064,4.077,12.128a.4.4,0,0,0,.723.121,27.941,27.941,0,0,1,4.072-4.217c1.445-1.209,3.071-2.095,4.588-3.192,1.535-1.109,2.052-2.648,2.619-4.383l2.032-6.236q2.034-6.238,4.061-12.476a107.518,107.518,0,0,0,3.2-10.725" fill="#fff"/><path d="M204.57-566.016c-.383-.052-.765-.108-1.149-.159a9.4,9.4,0,0,0,1.549-1.448c.244-.312.529-.755.353-1.164-.183-.429-.784-.375-1.152-.241a1.066,1.066,0,0,0-.739.968l.135.04a1.192,1.192,0,0,1,.835-.727c.264-.049.6.02.591.345a1.008,1.008,0,0,1-.225.443,7.562,7.562,0,0,1-1.957,1.747c-.132.089-.164.351.037.389.567.107,1.14.183,1.711.269.291.044.305-.421.012-.463" fill="#fff"/><path d="M205.461-565.488a1.65,1.65,0,0,1-3.031-1,3.7,3.7,0,0,1,.965-2.849,1.7,1.7,0,0,1,2.061-.309,1.518,1.518,0,0,1,.585,1.395,9.92,9.92,0,0,1-.533,2.724Zm.623-4.117a2.1,2.1,0,0,0-3.281.351c-.825,1.089-1.2,3.248-.179,4.332a1.973,1.973,0,0,0,2.989-.152l.005,0,0-.005.14-.212.024-.109c.559-1.169,1.113-3.189.3-4.2" fill="#fff"/><path d="M210.046-576.789a1.569,1.569,0,0,0,.927.179l.041-.251a1.8,1.8,0,0,0-.423-.092,2.537,2.537,0,0,1-.452-.141c-.191-.077-.28.227-.093.305" fill="#fff"/><path d="M211.029-575.519a.159.159,0,0,0,.088-.289,5.7,5.7,0,0,0-1.441-.456.167.167,0,0,0-.1.32,5.613,5.613,0,0,0,1.451.425" fill="#fff"/><path d="M211.171-574.392l.128-.207c-.293-.419-1.021-.451-1.487-.436a.18.18,0,0,0-.011.36,2.843,2.843,0,0,1,.748.117,1.892,1.892,0,0,0,.621.165" fill="#fff"/><path d="M210.511-573.461a.7.7,0,0,0,.513.021l.065-.215c-.2-.3-.716-.329-1.039-.407a.215.215,0,0,0-.125.411c.195.064.389.131.585.189" fill="#fff"/><path d="M211.011-572.737a1.594,1.594,0,0,0-.9-.385c-.288-.049-.435.385-.136.447s.545.2.831.264a.2.2,0,0,0,.2-.325" fill="#fff"/><path d="M209.842-572.236a.236.236,0,0,0-.137.452c.233.081.571.244.8.1l.077-.253c-.144-.244-.488-.261-.744-.3" fill="#fff"/><path d="M209.981-571.535c-.149-.06-.315-.06-.464-.133-.229-.112-.445.223-.215.339a.758.758,0,0,0,.705.067l-.027-.272" fill="#fff"/><path d="M184.532-465.454c-2.413,4.441-5.179,8.761-7.183,13.415-4.085-.061-8.172-.116-12.259-.123-1.777,0-3.555,0-5.331.051-.308.009-.728,0-1.151.027-.108-.359-.236-.731-.389-1.135q-2.588-6.816-5.175-13.633l-.119-.241c1.375-3.325,2.689-6.688,4.276-9.916.408-.833,1.215-3,1.925-3.3a8.937,8.937,0,0,1,2.368-.183c2.584-.149,5.172-.233,7.76-.316,1.129-.036,2.259-.061,3.389-.1.676-.024,1.339-.095,2.011-.149a2.853,2.853,0,0,1,1.631.157l.027.021a16.718,16.718,0,0,1,2.68,3.461q1.918,2.7,3.716,5.479a42.085,42.085,0,0,1,2.66,4.4l.111.239a18.187,18.187,0,0,0-.948,1.847Zm-29.557,18.345L152.9-443.4q-1.916,3.42-3.831,6.843a122.05,122.05,0,0,1-16.344-.453,93.733,93.733,0,0,0-7.86-14.311q1.92-3.478,3.868-6.941a49.277,49.277,0,0,0,3.479-6.58,123.744,123.744,0,0,0,18.875-.416q1.33,3.5,2.657,7,.754,1.988,1.509,3.976a15.935,15.935,0,0,1,1.308,3.619C156.678-449.483,155.548-448.134,154.974-447.108Zm38.876-21.239a25.69,25.69,0,0,0-4.6-.052,14.244,14.244,0,0,0-1.651.075,28.959,28.959,0,0,0-2.531-4.292q-2.048-3.154-4.255-6.2a26.392,26.392,0,0,0-2.576-3.395,19.369,19.369,0,0,0,1.308-1.851,14.623,14.623,0,0,0,2.027-3.521,1.069,1.069,0,0,0-1.773-1.033,13.949,13.949,0,0,0-2.064,3.223,21.136,21.136,0,0,0-1.168,2.181,5.812,5.812,0,0,0-1.915-.127c-1.435.112-2.859.179-4.3.225-2.849.093-5.7.188-8.548.351-.868.049-1.773.065-2.645.189a28.1,28.1,0,0,0-2.457-4.808.712.712,0,0,0-1.3.545,30.194,30.194,0,0,0,1.921,5.117,7.452,7.452,0,0,0-1.044,1.609,73.893,73.893,0,0,0-5.051,12.433,123.307,123.307,0,0,1-19.42.407,1.07,1.07,0,0,0-1.143,1.305,54.12,54.12,0,0,0-3.958,6.527c-1.368,2.371-2.733,4.74-4.059,7.133a14.5,14.5,0,0,0-7.03-.193c-1.527.26-.885,2.607.643,2.332,2.2-.393,4.253-.053,6.444-.039a93.752,93.752,0,0,1,7.965,14.493,19.724,19.724,0,0,0-1.492,2.044c-.893,1.232-2.627,3.035-2.459,4.64a.749.749,0,0,0,.934.712c1.581-.5,2.339-2.54,3.167-3.857.431-.684,1.241-1.555,1.707-2.447a120.071,120.071,0,0,0,13.676.565c.924-.016,1.956.047,2.913-.037.388.529.841,1.021,1.256,1.523a25.84,25.84,0,0,1,1.879,2.6c.835,1.315,2.948.079,2.088-1.22a29.822,29.822,0,0,0-1.987-2.667c-.383-.46-.792-.969-1.245-1.423l.157-.283,3.557-6.356c1.136-2.029,2.313-4.04,3.409-6.091a5.383,5.383,0,0,0,.585-1.633l.141-.009c.592-.016,1.181-.041,1.773-.051,1.823-.033,3.647-.033,5.468-.033q5.5,0,11,.079a21.956,21.956,0,0,0,.849,2.048,11.137,11.137,0,0,0,1.352,2.74,1.086,1.086,0,0,0,1.837-.761,8.374,8.374,0,0,0-1.1-2.82c-.313-.627-.608-1.287-.955-1.909l.075-.161c2-4.961,5.052-9.487,7.561-14.2.253-.476.521-.939.717-1.409.56.071,1.171.025,1.712.041a16.515,16.515,0,0,0,4.6-.175c.964-.255,1.095-1.917,0-2.084" fill="#fff"/><path d="M116.726-478.82c.041,2.088.177,4.172.392,6.249.077.743,1.241.761,1.178,0-.017-.2-.035-.388-.058-.572-.232-2.217-.375-4.44-.414-6.669a69.416,69.416,0,0,0,.007-7.249.273.273,0,0,0-.533-.072,24.386,24.386,0,0,0-.59,7.031l0,.151-.108,0a21.82,21.82,0,0,0-4.29.987c-.006-.189-.014-.379-.02-.568-.039-1.2-.074-2.4-.119-3.6a7.21,7.21,0,0,0-.383-2.888c-.144-.319-.581-.18-.678.088a7.938,7.938,0,0,0-.122,3.1c.055,1.3.118,2.6.179,3.9.109,2.332.174,4.684.5,7,.058.416.674.283.7-.095.125-2.011.054-4.041-.021-6.06a21.435,21.435,0,0,0,4.383-.727" fill="#fff"/><path d="M121.731-484.031l.213-.161c1.827-2.195,4.04.919,4.555,2.681.557,1.9.09,4.112-1.823,5.027-1.89.9-3.625-.389-4.024-2.293-.376-1.793.406-3.589,1.079-5.253Zm-1.437,7.4a4,4,0,0,0,5.932.557c2.226-1.867,2.062-5.151.69-7.484-1.254-2.131-3.905-3.805-5.831-1.492a.616.616,0,0,0-.083.68c-1.383,2.327-2.416,5.3-.708,7.739" fill="#fff"/><path d="M137.162-489.792a.427.427,0,0,0,.817,0c.475-2.14.055-4.631-.015-6.812-.005-.155-.007-.313-.009-.472.863.061,1.733.04,2.6.035a16.806,16.806,0,0,0,2.153-.047c.035.443.071.884.111,1.321a20.111,20.111,0,0,0,1.067,6.108c.183.419.787.171.8-.217.087-2.137-.548-4.348-.728-6.484-.181-2.18-.155-4.361-.28-6.543a.5.5,0,0,0-.991,0,29.869,29.869,0,0,0-.056,4.687,17.441,17.441,0,0,0-2.079-.015c-.867.008-1.74,0-2.6.061a18.2,18.2,0,0,0-.479-5.2.245.245,0,0,0-.468,0c-.536,2.115-.2,4.6-.16,6.764s-.26,4.708.32,6.812" fill="#fff"/><path d="M147.682-499.457a.583.583,0,0,0,.547-.252c1.311-1.869,3.389,1.908,3.679,2.891.444,1.511.047,3.68-1.8,3.991-1.769.295-3.067-1.481-3.2-3.061a7.99,7.99,0,0,1,.779-3.568Zm-.973,6.1a3.541,3.541,0,0,0,5.283.813c3.547-3.313-2-11.7-4.787-7.763a.476.476,0,0,0-.048.513c-1.3,1.877-1.9,4.465-.448,6.436" fill="#fff"/><path d="M100.265-346.255c-2.258.223-4.523.379-6.789.492q2.829-4,5.5-8.105c1.057,2.463,2.071,4.943,3.064,7.432Q101.15-346.342,100.265-346.255Zm-7.934.556q-4.1.172-8.2.105l-.464-.015q-2.705-4.864-4.93-9.973,2.4-3.994,5.127-7.781c3.612,0,7.228.136,10.84.279,1.082,2.124,2.093,4.28,3.067,6.455.27.6.528,1.209.791,1.815q-2.491,3.792-5.085,7.495c-.38.543-.766,1.081-1.149,1.621Zm-4.794,6.537q-1.738-2.7-3.329-5.484,3.709.07,7.417-.059-2,2.8-4.089,5.543Zm-2.8,3.593a51.579,51.579,0,0,1-9.38,9.473,29.034,29.034,0,0,1-2.566,1.7c-.671.393-1.682.847-2.355.248a3.21,3.21,0,0,1-.793-1.637,20.053,20.053,0,0,1-.095-6.7A42.994,42.994,0,0,1,73.3-345.227c3.249.325,6.523.476,9.756.555q1.818,3.24,3.842,6.356Q85.829-336.933,84.739-335.569ZM73.887-346.517c1.288-2.731,2.705-5.4,4.231-8.012q2.006,4.534,4.389,8.887c-2.93-.1-5.842-.324-8.751-.589Zm1.9-16.555c2.3-.181,4.611-.269,6.919-.289q-2.333,3.282-4.426,6.723Q76.933-359.816,75.786-363.071Zm30.46,27.223a3.7,3.7,0,0,1-.434-1.776.462.462,0,0,0,.143-.471,1.577,1.577,0,0,1-.037-.584l.032-.141c.3-1.147,2.171-1.277,2.981-.369a3.621,3.621,0,0,1,.644,3.391c-.623,1.867-2.521,1.428-3.329-.049Zm-45.494-13.6.088-.241c.49-.276.38-.921.8-1.249.5-.388,1.406-.064,1.825.3a2.5,2.5,0,0,1-.794,4.153,1.822,1.822,0,0,1-1.921-2.965Zm29.839-27.5a2.506,2.506,0,0,1,2.873-1.7A2.1,2.1,0,0,1,95-375.83c-.288,1.007-2.658,4.209-3.578,2a.492.492,0,0,0-.453-.295A3.727,3.727,0,0,1,90.591-376.952Zm33.582,19.788c-1.752-1.9-4.517-2.9-6.872-3.8a35.344,35.344,0,0,0-9.091-2.32c-.53-.051-.648.827-.125.933,4.771.977,9.879,2.044,14.016,4.78a4.972,4.972,0,0,1,2.206,2.528c.448,1.652-1.2,2.805-2.4,3.591a22.222,22.222,0,0,1-6.384,2.723,81.773,81.773,0,0,1-12.464,2.183c-1.111-2.78-2.249-5.549-3.443-8.295q1.412-2.188,2.786-4.4c2.884-4.668,5.969-9.433,8.173-14.471,1.526-3.488,3.36-11.469-2.161-12.591-4.548-.925-9.487,2.847-11.666,6.516-.222.372.339.691.577.336a14.271,14.271,0,0,1,4.791-4.515c1.814-1.032,4.324-2,6.43-1.405,2.646.745,2.913,4.241,2.642,6.505a20.788,20.788,0,0,1-2.511,7.047C105.8-366.336,102.591-361,99.2-355.786c-.164-.371-.321-.745-.488-1.115-.907-2.017-1.842-4.1-2.865-6.137,1.783.069,3.564.139,5.344.189.32.008.306-.456,0-.489q-2.877-.316-5.772-.555a42.068,42.068,0,0,0-3.972-6.392c-.194-.252-.538.069-.416.321.983,2.031,2.139,3.981,3.2,5.977-3.2-.239-6.407-.384-9.615-.4q3.105-4.214,6.566-8.132a1.915,1.915,0,0,0,.924.377,3.244,3.244,0,0,0,2.67-1.331c1.285-1.455,2.03-4.008.316-5.455a3.506,3.506,0,0,0-4.719.432,4.057,4.057,0,0,0,.192,5.237c-2.5,2.836-4.889,5.8-7.124,8.871-2.67.015-5.338.12-8,.348q-1.68-4.884-2.917-9.907a66.774,66.774,0,0,1-2.044-10.523c-.1-1.32.343-2.656,1.886-2.635a5.2,5.2,0,0,1,2.4.792,27.571,27.571,0,0,1,4.866,3.888,59.926,59.926,0,0,1,7.927,9.332.318.318,0,0,0,.549-.32,41.525,41.525,0,0,0-7.647-9.528,41.127,41.127,0,0,0-4.456-3.737,6.07,6.07,0,0,0-4.263-1.36c-3.567.627-1.978,5.644-1.554,7.952a113,113,0,0,0,2.929,12.091c.409,1.359.854,2.707,1.313,4.051-.234.023-.469.043-.7.068a57.124,57.124,0,0,0-12.554,2.551,21.828,21.828,0,0,0-4.92,2.329,9.925,9.925,0,0,0-3.628,3.532c-1.63,3.513,4.708,5.469,7.3,5.7a2.687,2.687,0,0,0,.42,3.819,3.14,3.14,0,0,0,4.382-.9,3.627,3.627,0,0,0-.971-4.839,2.84,2.84,0,0,0-2.1-.384,1.79,1.79,0,0,0-.831.455,1.682,1.682,0,0,0-.309.453,1.893,1.893,0,0,0-.051.22l-.294.06-.139.109a10.367,10.367,0,0,1-3.784-.979,5.735,5.735,0,0,1-2.678-2.1c-.934-2.049,3.37-4.473,4.771-5.2,4.037-2.1,8.79-2.968,13.254-3.577,1.055-.144,2.111-.259,3.167-.356q1.316,3.742,2.887,7.385-2.547,4.3-4.666,8.825c-.07.151-.135.3-.2.452-2.244-.211-4.488-.437-6.742-.64-.365-.033-.445.564-.086.64,2.1.436,4.232.755,6.381.993a43.289,43.289,0,0,0-3.748,13.305c-.2,2.155-.835,10.548,3.619,8.957,2.158-.771,4.226-2.617,5.936-4.1a51.287,51.287,0,0,0,5.257-5.367c1.389-1.616,2.717-3.285,4.021-4.977a113.62,113.62,0,0,0,9.18,12.056c2.4,2.749,5.709,5.937,9.378,3.157,3.554-2.693,3.016-7.395,2.333-11.279a2.778,2.778,0,0,0,2.3-2.289c.43-1.812-.369-4.287-2.292-4.9-1.776-.567-3.841,1.061-3.323,2.933l.043.085a3.8,3.8,0,0,0,1.339,3.515,3.09,3.09,0,0,0,.951.539l-.016.241c.637,3.58,1.318,8.52-2.439,10.691-3.631,2.1-6.668-2.317-8.706-4.727a112,112,0,0,1-8.1-10.856c1.6-2.107,3.159-4.251,4.691-6.4q4.77-.2,9.518-.732l.144-.016q.6,1.516,1.2,3.032c.232.588,1.194.331.958-.265q-.57-1.44-1.143-2.88c5.109-.576,10.447-1.235,15.234-3.093,3.277-1.272,9.227-4.437,5.508-8.465" fill="#fff"/><path d="M90.7-350.647A4.4,4.4,0,0,1,85.18-351.9c-1.434-2.207-.021-5.467,1.5-7.411a.4.4,0,0,0,.684.221c.984-1.059,2.055-1.644,3.446-.833a5.071,5.071,0,0,1,2.155,3.219c.524,2.193-.163,4.923-2.265,6.056Zm2.655-7.893a4.853,4.853,0,0,0-3.471-2.771,3.11,3.11,0,0,0-3.023,1.285l-.118.044c-2.429,1.923-4.343,6.092-2.154,8.909a5.39,5.39,0,0,0,7.225.877c2.5-1.888,2.926-5.667,1.541-8.345" fill="#fff"/><path d="M86.484-356.564a.728.728,0,0,0,.578-.408.2.2,0,0,0-.243-.244,3.954,3.954,0,0,1-.459.205c-.292.064-.168.508.123.447" fill="#fff"/><path d="M86.327-355.222a2.569,2.569,0,0,1,.71-.533c.154-.079.09-.365-.093-.341a1.354,1.354,0,0,0-.964.529c-.193.239.13.583.346.345" fill="#fff"/><path d="M87.556-354.688a.25.25,0,0,0-.174-.42,1.7,1.7,0,0,0-.943.351,4.863,4.863,0,0,0-.827.644c-.266.253.124.625.4.4a5.112,5.112,0,0,1,.783-.537,2.762,2.762,0,0,0,.763-.435" fill="#fff"/><path d="M88.292-353.782c.109-.136.014-.379-.184-.316a3.815,3.815,0,0,0-.984.579c-.317.22-.644.431-.945.672-.218.175.061.515.293.381.335-.195.65-.428.97-.645a3.7,3.7,0,0,0,.85-.671" fill="#fff"/><path d="M88.83-352.688a.167.167,0,0,0-.142-.248c-.628-.056-1.229.655-1.594,1.088-.227.271.143.659.394.395a6.1,6.1,0,0,1,.72-.639,1.778,1.778,0,0,0,.621-.6" fill="#fff"/><path d="M89.15-351.691c-.445-.223-.986.227-1.309.5-.288.247.1.76.41.531a6.317,6.317,0,0,1,.541-.335c.164-.1.367-.188.445-.371a.243.243,0,0,0-.086-.328" fill="#fff"/><path d="M89.921-351.544a1.286,1.286,0,0,0-.6.44.334.334,0,0,0,.472.472,1.279,1.279,0,0,0,.44-.6.254.254,0,0,0-.308-.308" fill="#fff"/><path d="M89.023-378.527a1.948,1.948,0,0,0,.328-1.016.231.231,0,0,0-.39-.161,1.956,1.956,0,0,0-.5.941.309.309,0,0,0,.563.236" fill="#fff"/><path d="M89.987-379.975c.37.031.783-.283.7-.677l-.255-.193a2.131,2.131,0,0,0-.539.163.362.362,0,0,0,.1.708" fill="#fff"/><path d="M92.6-380.668a.266.266,0,0,0-.053-.409.817.817,0,0,0-.35-.1,2.563,2.563,0,0,0-.391-.052.3.3,0,0,0-.213.513.734.734,0,0,0,1.007.051" fill="#fff"/><path d="M94.082-380.274a.49.49,0,0,0,.474-.473.48.48,0,0,0-.474-.475,2.307,2.307,0,0,0-.47.013.393.393,0,0,0-.27.476.66.66,0,0,0,.741.459" fill="#fff"/><path d="M58.708-345.559a.374.374,0,0,0-.681-.287.822.822,0,0,0,.108,1,.371.371,0,0,0,.367.1.373.373,0,0,0,.277-.364c0-.161-.117-.28-.072-.451" fill="#fff"/><path d="M60.32-344.016l-.345-.137a.347.347,0,0,0-.576.335.589.589,0,0,0,.805.427.376.376,0,0,0,.26-.341l0-.025-.148-.257" fill="#fff"/><path d="M62.027-343.816a.387.387,0,0,0-.391.668.749.749,0,0,0,.554.159.419.419,0,0,0,.383-.292.377.377,0,0,0-.1-.388c-.133-.129-.293-.081-.444-.147" fill="#fff"/><path d="M64.152-344.687a1.054,1.054,0,0,0-.242.477.466.466,0,0,0,.772.449,1.051,1.051,0,0,0,.285-.452c.161-.441-.518-.86-.816-.475" fill="#fff"/><path d="M108.65-342.654a.389.389,0,0,0,.207.749c.28-.051.65-.105.785-.391a.335.335,0,0,0-.117-.445.947.947,0,0,0-.875.087" fill="#fff"/><path d="M111.867-340.94c.243-.5-.629-.724-.962-.756a.341.341,0,0,0-.292.509c.2.331,1.005.759,1.254.247" fill="#fff"/><path d="M112.643-339.183a.261.261,0,0,0,.346-.091c.236-.351-.053-.721-.34-.923s-.647.189-.466.465c.131.2.228.448.459.548" fill="#fff"/><path d="M112.837-338.219a.551.551,0,0,0-.232.752c.153.308.552.171.657-.087l.068-.287a.339.339,0,0,0-.493-.379" fill="#fff"/><path d="M112.434-336.27a.412.412,0,0,0-.549.144.914.914,0,0,0-.181.551c-.012.677,1.1.479.876-.119l0-.027a.405.405,0,0,0-.144-.549" fill="#fff"/><path d="M133.22-108.113c-.949,5.187-3.651,9.52-5.687,14.294a22.444,22.444,0,0,0-1.253,3.669c-.311,1.325-.338,3.021-1.326,4.067a3.513,3.513,0,0,1-5.637-1.442.522.522,0,0,0-1,.285,3.24,3.24,0,0,1-1.528,3.8,6.7,6.7,0,0,1-4.744.48,34.711,34.711,0,0,1-7.714-2.516,38.186,38.186,0,0,1-13.045-9.248c-3.515-3.944-5.858-8.955-5.565-14.32.271-4.961,2.946-9.667,7.7-11.533a10.793,10.793,0,0,1,7.5-.264c2.818,1,4.712,3.31,6.406,5.651a.323.323,0,0,0,.473.06.5.5,0,0,0,.418-.476,12.724,12.724,0,0,1,8.549-11.148,12.3,12.3,0,0,1,13.488,4.195c3.17,4.089,3.885,9.467,2.972,14.45ZM98.3-143.841c.148.324.3.645.444.969a5.857,5.857,0,0,1-.19,1.492,4.907,4.907,0,0,1-1.19,2.076,6.632,6.632,0,0,1-3.213,1.587,22.988,22.988,0,0,0,4.149-6.124Zm6.211,16.422a.523.523,0,0,0,1.02-.146,30.582,30.582,0,0,1,4.592-13.5c.391,1.427,1.021,2.832,1.436,4.241q-.989,1.808-2,3.6a24.384,24.384,0,0,1-3.453,5.324l.094.118c1.582-.761,2.411-2.928,3.236-4.361.849-1.473,1.671-2.963,2.486-4.456,1.446-.251,2.9-.472,4.354-.676a21.658,21.658,0,0,1-11,10.956.532.532,0,0,0-.3.773,16.8,16.8,0,0,1,2.467,7.752l.021.076c-.026.12-.043.244-.065.366a41.594,41.594,0,0,0-13.661-19.608c2.12-.641,4.112-1.356,5.068-3.6a6.22,6.22,0,0,0,.349-1.38,127.369,127.369,0,0,1,5.358,14.526Zm8.088-10.42c1.908-3.52,3.934-7.079,5.6-10.737a21.633,21.633,0,0,1-1.678,10.755c-.665.093-1.329.189-1.992.295a7.57,7.57,0,0,1-2.3.357c.122-.223.245-.445.367-.669Zm-1.547-2.053a13.51,13.51,0,0,0-.664-1.6,30.6,30.6,0,0,1,7.677-8.088l0,.019c-1.9,3.576-3.571,7.283-5.485,10.857-.24.447-.485.891-.728,1.337a5.606,5.606,0,0,1-.357-1.24q-.211-.644-.447-1.283Zm20.776,17.757a13.425,13.425,0,0,0-13.636-6.05,13.69,13.69,0,0,0-9.987,8.121,17.25,17.25,0,0,0-2.049-5.521,23.172,23.172,0,0,0,12.778-25.05.525.525,0,0,0-.771-.3,31.945,31.945,0,0,0-13.352,20.987,127.778,127.778,0,0,0-6.079-15.4.518.518,0,0,0-.89.015,22.417,22.417,0,0,1-5.412,7.919.509.509,0,0,0,.014.717,43.467,43.467,0,0,1,14.036,19.149,11.982,11.982,0,0,0-4.556-3.883,11.044,11.044,0,0,0-7.027-.6A13.229,13.229,0,0,0,85.008-111.3c-2.4,12.855,9.533,23.026,20.244,27.33,2.99,1.2,6.7,2.68,9.979,2.154a5.174,5.174,0,0,0,4.212-3.579,4.764,4.764,0,0,0,3.038,1.221,4.156,4.156,0,0,0,4.313-3.332c.415-1.5.6-3.019,1.132-4.5a43.25,43.25,0,0,1,2.142-4.72,48.094,48.094,0,0,0,3.577-8.6c1.565-5.592,1.443-11.824-1.816-16.815" fill="#fff"/><path d="M90.675-117.173a6.331,6.331,0,0,0,1.1-.722.159.159,0,0,0-.156-.261,6.347,6.347,0,0,0-1.14.659.19.19,0,0,0,.2.325" fill="#fff"/><path d="M89.866-115.9a21.711,21.711,0,0,1,2.042-1.091.177.177,0,0,0-.093-.327,3.907,3.907,0,0,0-2.2,1.008c-.235.187,0,.6.249.409" fill="#fff"/><path d="M88.756-114.038c1.121-.768,2.395-1.354,3.471-2.173.144-.109.064-.378-.136-.313a14.008,14.008,0,0,0-3.573,2.093c-.239.171-.008.563.239.394" fill="#fff"/><path d="M88.1-112.2c1.258-.909,2.665-1.6,3.907-2.524.145-.108.06-.383-.136-.314a16.108,16.108,0,0,0-4.016,2.433c-.241.179,0,.583.245.4" fill="#fff"/><path d="M88.014-110.9c1.165-.817,2.5-1.391,3.646-2.215.2-.146.082-.516-.186-.428a14.693,14.693,0,0,0-3.71,2.228c-.25.181-.006.595.251.415" fill="#fff"/><path d="M88.379-109.261c1.185-1.041,2.554-1.756,3.779-2.727.162-.129.076-.441-.159-.364a12.338,12.338,0,0,0-4.03,2.695c-.276.244.137.637.411.4" fill="#fff"/><path d="M88.549-107.683c1.059-.91,2.331-1.651,3.326-2.62.206-.2-.065-.468-.292-.367a15.484,15.484,0,0,0-3.451,2.585c-.281.244.137.641.417.4" fill="#fff"/><path d="M88.972-105.947a33.575,33.575,0,0,1,2.873-2.469.2.2,0,0,0-.2-.333,8.617,8.617,0,0,0-3.082,2.409c-.244.271.163.664.408.393" fill="#fff"/><path d="M89.227-104.326a10.789,10.789,0,0,1,1.132-1.119c.4-.337.88-.6,1.25-.969a.229.229,0,0,0-.227-.376,6.762,6.762,0,0,0-2.562,2.072c-.239.273.166.667.408.392" fill="#fff"/><path d="M92.258-105a.17.17,0,0,0-.167-.279,6.555,6.555,0,0,0-2.6,1.93c-.255.256.149.646.406.39a13.619,13.619,0,0,1,1.219-1.093A6.558,6.558,0,0,0,92.258-105" fill="#fff"/><path d="M90.763-101.771a12.884,12.884,0,0,0,1.366-1.3c.105-.148-.075-.328-.228-.288a3.815,3.815,0,0,0-1.558,1.183.291.291,0,0,0,.42.4" fill="#fff"/><path d="M91.328-100.335l.835-.673a3.364,3.364,0,0,0,.713-.661c.126-.18-.117-.331-.271-.261a3.578,3.578,0,0,0-.787.591l-.817.692c-.223.191.1.492.325.313" fill="#fff"/><path d="M92.986-100.136a.16.16,0,0,0-.115-.268,2.543,2.543,0,0,0-1.5,1.035c-.167.2.107.47.293.281a4.745,4.745,0,0,1,.684-.583,3.424,3.424,0,0,0,.633-.465" fill="#fff"/><path d="M93.219-99.35a3.8,3.8,0,0,0-1.134.775c-.27.211.009.674.279.459a4.059,4.059,0,0,0,1.068-.966.187.187,0,0,0-.212-.268" fill="#fff"/><path d="M93.142-96.957a2.966,2.966,0,0,0,.711-.673.188.188,0,0,0-.214-.269,2.957,2.957,0,0,0-.851.5.284.284,0,1,0,.354.442" fill="#fff"/><path d="M94.851-96.795a.241.241,0,0,0-.273-.345,2.024,2.024,0,0,0-.683.452c-.221.173-.433.36-.649.54-.307.256.144.688.449.432.209-.175.423-.346.625-.527a1.906,1.906,0,0,0,.531-.552" fill="#fff"/><path d="M95.6-95.288l-.185-.181a2.72,2.72,0,0,0-1.037.729c-.268.233.133.621.4.384a2.649,2.649,0,0,0,.824-.932" fill="#fff"/><path d="M96.577-94.44a2.474,2.474,0,0,0-.919.468c-.31.191-.015.681.294.484a2.5,2.5,0,0,0,.824-.617.226.226,0,0,0-.2-.335" fill="#fff"/><path d="M97.567-93.584a2.655,2.655,0,0,0-.878.631c-.31.262.147.7.455.437a2.475,2.475,0,0,0,.709-.707.252.252,0,0,0-.286-.361" fill="#fff"/><path d="M98.886-92.762l-.132-.224a1.257,1.257,0,0,0-.819.3.292.292,0,0,0,.3.5c.256-.152.542-.275.649-.57" fill="#fff"/><path d="M99.274-91.983a1.261,1.261,0,0,0-.776.543c-.207.256.161.616.372.359.178-.218.425-.367.583-.595a.207.207,0,0,0-.18-.307" fill="#fff"/><path d="M100.07-91.419c-.336-.024-.657.283-.877.505-.253.256.149.643.4.387.206-.208.5-.33.666-.568.1-.145-.045-.312-.192-.324" fill="#fff"/><path d="M101.137-90.407c-.406-.1-.781.287-1.007.579s.179.709.429.412c.2-.243.57-.4.709-.684a.212.212,0,0,0-.131-.307" fill="#fff"/><path d="M101.764-89.437a1.1,1.1,0,0,0-.458.269c-.292.22.009.715.3.49a1.262,1.262,0,0,0,.432-.417.24.24,0,0,0-.27-.342" fill="#fff"/><path d="M103.174-88.656c-.158-.358-.685-.042-.906.057-.318.146-.078.708.248.571.224-.095.816-.269.658-.628" fill="#fff"/><path d="M103.773-88.1l-.341.122c-.363.044-.357.62,0,.569.273-.037.538-.133.6-.431a.218.218,0,0,0-.267-.261" fill="#fff"/><path d="M104.595-87.765a.374.374,0,0,0,.2.719c.256-.073.512-.116.649-.365a.284.284,0,0,0-.109-.381.911.911,0,0,0-.743.028" fill="#fff"/><path d="M79.721-180.516A60.139,60.139,0,0,0,73.9-191.868c-.835-1.259-2.211-2.592-3.868-2-1.537.549-1.6,2.332-1.336,3.683.754,3.909,3.056,7.551,5.214,10.832,1.767,2.684,4.251,7.1,8.114,6.364a3.356,3.356,0,0,0,2.726-2.805,8.264,8.264,0,0,0-.909-4.395,93.773,93.773,0,0,0-5.809-11.464q-1.668-2.794-3.539-5.463a25.892,25.892,0,0,0-3.755-4.6c-2.31-2.055-6.453-3.029-8.531-.085-2.128,3.015-.023,7.357,1.243,10.269A59.334,59.334,0,0,0,70.7-179.2c.549.719,1.7-.085,1.154-.808a57.871,57.871,0,0,1-5.643-8.945c-.761-1.5-1.454-3.04-2.079-4.6a18.589,18.589,0,0,1-1.289-4.084,4.4,4.4,0,0,1,.659-3.529,3.734,3.734,0,0,1,3.906-.888,8.249,8.249,0,0,1,3.87,2.992c1.08,1.335,2.07,2.752,3.034,4.172A88.87,88.87,0,0,1,79.7-185.86q1.242,2.394,2.336,4.86a13.643,13.643,0,0,1,1.416,4.1,2.209,2.209,0,0,1-2.166,2.667c-1.726.037-3-1.309-3.98-2.569a55.03,55.03,0,0,1-5.649-8.937,16.178,16.178,0,0,1-1.785-5.1c-.106-.841-.02-1.965,1.107-1.873.985.08,1.587,1.048,2.081,1.795a85.4,85.4,0,0,1,5.922,10.668c.211.448.927.215.739-.264" fill="#fff"/><path d="M58.505-314.617a15.13,15.13,0,0,0-5.235,6.867c-.139.453.46.621.707.3.876-1.143,1.566-2.419,2.468-3.551a35.9,35.9,0,0,1,2.713-2.959c.434-.433-.2-1.007-.654-.655" fill="#fff"/><path d="M48.584-297.478a46.478,46.478,0,0,0-2.735,8.2c-.075.4.481.7.7.293a46.947,46.947,0,0,0,3.046-8.215c.2-.655-.767-.889-1.008-.277" fill="#fff"/><path d="M43.658-278.3c-2.119,3.207-3.388,7.628-2.233,11.425a.456.456,0,0,0,.891-.121c.285-3.86.528-7.38,2.029-11.015.169-.411-.465-.624-.686-.289" fill="#fff"/><path d="M41.447-259.815c-1.532,2.9-2.539,7.04-.63,10.017.235.365.935.26.888-.241-.312-3.315-.935-6.1.59-9.281.269-.563-.551-1.06-.848-.495" fill="#fff"/><path d="M43.767-232.367c-.7-2.993-1.609-5.593-1.367-8.744.055-.721-1.027-.692-1.109,0-.356,2.984-.227,6.576,1.547,9.136a.511.511,0,0,0,.929-.392" fill="#fff"/><path d="M50.4-218.513c-.545-.787-1.308-1.383-1.857-2.171a7.243,7.243,0,0,1-1.2-2.8c-.1-.54-1.031-.424-.97.132.229,2.059,1.25,4.923,3.518,5.5.356.092.742-.324.508-.661" fill="#fff"/><path d="M104.746-171.917c-.56-.208-1.151-.277-1.713-.507a5.774,5.774,0,0,1-1.72-1.033c-.461-.411-1.131.245-.682.681,1.005.979,2.656,1.941,4.115,1.509a.34.34,0,0,0,0-.651" fill="#fff"/><path d="M122.512-163.93c-.555-.209-1.187-.209-1.76-.389a5.559,5.559,0,0,1-1.779-.924.44.44,0,0,0-.621.621c.956,1.095,2.788,2.169,4.262,1.479.369-.173.208-.669-.1-.787" fill="#fff"/><path d="M136.088-154.722c-.631-1.861-2.933-2.92-4.7-3.293a.439.439,0,0,0-.234.847,9.733,9.733,0,0,1,2.394,1.275c.689.492,1.233,1.173,1.932,1.639a.417.417,0,0,0,.607-.467" fill="#fff"/><path d="M145.68-144.356c-.539-1.715-1.935-3.129-2.965-4.56-.333-.464-1.091-.051-.783.457.909,1.5,1.671,3.36,3.029,4.521.305.261.857.02.719-.419" fill="#fff"/><path d="M147.968-138.36a.436.436,0,0,0-.872,0c-.052,1.439-.4,3.152.008,4.553a.449.449,0,0,0,.857,0c.412-1.4.06-3.116.007-4.553" fill="#fff"/><path d="M147.2-127.469a14.013,14.013,0,0,0-1.544,4.633c-.025.425.549.517.753.205a13.906,13.906,0,0,0,1.509-4.536c.085-.408-.519-.729-.719-.3" fill="#fff"/><path d="M144.44-120.372a1.618,1.618,0,0,0-1.115,2.275c.335.659,1.464.2,1.208-.509-.089-.248-.155-.667.175-.791a.506.506,0,0,0-.268-.975" fill="#fff"/><path d="M142.345-362.107a18.6,18.6,0,0,0-5.267.891c-.483.123-.4.941.12.891a18.707,18.707,0,0,0,5.259-.947.427.427,0,0,0-.112-.835" fill="#fff"/><path d="M153.949-367.179c-.805.367-1.5.976-2.309,1.359a10.568,10.568,0,0,1-2.748.852c-.516.088-.4.989.125.925,1.879-.233,4.369-.911,5.532-2.536.284-.4-.247-.763-.6-.6" fill="#fff"/><path d="M164.888-374.919a.379.379,0,0,0-.7-.189c-.487.763-.74,1.643-1.276,2.395a6.715,6.715,0,0,1-2.241,1.967c-.487.269-.059.939.425.729,1.753-.759,4-2.768,3.792-4.9" fill="#fff"/><path d="M171.746-387.642c-1.005,2.257-1.739,4.52-3.224,6.537-.291.395.375.915.685.528,1.577-1.963,3.069-4.3,3.271-6.867.029-.376-.575-.553-.732-.2" fill="#fff"/><path d="M176.632-401.788c-.959,1.439-1.187,3.623-1.568,5.279a.462.462,0,0,0,.891.247c.6-1.607,1.6-3.537,1.592-5.277a.5.5,0,0,0-.915-.248" fill="#fff"/><path d="M179.108-415.559c-.037-.4-.635-.677-.845-.229a17.9,17.9,0,0,0-1.019,5.375c-.065.572.867.685,1,.136a17.691,17.691,0,0,0,.867-5.281" fill="#fff"/><path d="M178.426-425.259a16.5,16.5,0,0,0,.537-2.216.543.543,0,0,0-.917-.379c-1.379,1.339-1.124,4.075-.684,5.761a.575.575,0,0,0,1.108-.305,7.253,7.253,0,0,1-.044-2.861" fill="#fff"/><path d="M148.834-527.353A22.8,22.8,0,0,0,147-520.689a.367.367,0,0,0,.707.2,22.8,22.8,0,0,0,1.887-6.653.413.413,0,0,0-.764-.207" fill="#fff"/><path d="M156.816-540.823a12.751,12.751,0,0,0-1.972,2.4c-.661.912-1.281,1.835-1.877,2.789-.236.375.319.817.621.479.747-.839,1.456-1.692,2.145-2.583a12.539,12.539,0,0,0,1.759-2.567.432.432,0,0,0-.676-.521" fill="#fff"/><path d="M169.488-549.747a26.7,26.7,0,0,0-5.173,3.859c-.3.257.091.76.423.549a26.588,26.588,0,0,0,5.241-3.773.406.406,0,0,0-.491-.635" fill="#fff"/><path d="M179.72-552.44a.422.422,0,0,0-.4-.305c-.524.033-.812.533-1.059.953-.281.479-.521.977-.787,1.465-.219.4.352.905.667.515.344-.427.7-.841,1.036-1.275.284-.367.711-.867.543-1.353" fill="#fff"/><path d="M565.283-470.4c.521-.079,1.035-.192,1.559-.264l.048.211a2.354,2.354,0,0,0-.461.14.147.147,0,0,0,.043.279,2.263,2.263,0,0,0,.511-.008,289,289,0,0,1,5.977,35.577c.264,2.648.252,6.051-2.489,7.453-2.683,1.373-4.436-1.228-5.028-3.5a78.97,78.97,0,0,1-1.335-8.379l-1.405-9.484q-1.5-10.154-3.009-20.308a8.316,8.316,0,0,0,1.771-.419c.151-.057.063-.256-.073-.251a8.1,8.1,0,0,0-1.751.305c-.02-.143-.041-.284-.064-.427a6.855,6.855,0,0,0,1.247-.3.128.128,0,0,0-.037-.241,10.524,10.524,0,0,0-1.859.239c-1.145.276-2.64.484-2.883-.871a50.273,50.273,0,0,1,13.927-2.167q.072.51.145,1.021c-.991.317-4.448.88-4.911,1.131a.138.138,0,0,0,.079.261Zm5.547-1.212a7.211,7.211,0,0,0-.227-1.6.342.342,0,0,0-.3-.287,50.743,50.743,0,0,0-14.765,2.3.344.344,0,0,0-.2.359c.1,2.093,2.008,2.057,3.565,1.625q1.5,10.118,3,20.236.756,5.092,1.511,10.187.378,2.546.755,5.093a26.513,26.513,0,0,0,.724,3.8c.577,1.913,1.831,3.924,4.06,3.957,2.268.032,4-1.976,4.536-4.017.72-2.756.025-5.869-.311-8.636q-.606-5-1.383-9.975c-1.156-7.431-2.581-14.879-4.267-22.208a11.412,11.412,0,0,0,3.295-.835" fill="#fff"/><path d="M571.112-434.054a18.145,18.145,0,0,1,.2,2.893c-.068,1.075-.7,2.468-2.015,2.253-1.692-.28-2.156-2.5-2.385-3.869q-1.046-6.244-2.056-12.495c-.737-4.532-1.421-9.077-2.244-13.595a11.246,11.246,0,0,0,5.139-.063q2.13,12.372,3.365,24.875Zm-8.72-25.484a.34.34,0,0,0-.54.316c.723,4.751,1.561,9.488,2.335,14.231q.568,3.474,1.139,6.949c.363,2.2.576,4.5,1.131,6.663a4.268,4.268,0,0,0,2.375,3.064,2.446,2.446,0,0,0,3.052-1.973,7.013,7.013,0,0,0,.067-2.319c-.108-1.223-.236-2.444-.365-3.664q-.366-3.52-.808-7.031-1.016-8.076-2.412-16.1a.346.346,0,0,0-.392-.288,11.656,11.656,0,0,1-5.58.149" fill="#fff"/><path d="M565.6-462.759a1.008,1.008,0,0,1-1.22.577,1.372,1.372,0,0,1-.644-1.357l.049-.049c.275-.475.432-1.3,1.176-.9A1.506,1.506,0,0,1,565.6-462.759Zm-2.139-1a1.7,1.7,0,0,0,.765,1.961,1.421,1.421,0,0,0,1.807-.883,1.98,1.98,0,0,0-1.021-2.312,1.186,1.186,0,0,0-1.551,1.233" fill="#fff"/><path d="M562.788-467.162l.108-.107c.241-.827,1.236.105.927.676-.155.285-.543.221-.76.045A.8.8,0,0,1,562.788-467.162Zm1.459.6a1.266,1.266,0,0,0-.683-1.411c-.429-.2-1.1.057-1.063.559a1.082,1.082,0,0,0,.473,1.275.846.846,0,0,0,1.272-.423" fill="#fff"/><path d="M565.959-456.574a.329.329,0,0,1-.3.348c-.228-.005-.353-.224-.4-.42l-.013-.033C565.413-456.972,565.968-456.995,565.959-456.574Zm-.375.759a.722.722,0,0,0,.769-.695.7.7,0,0,0-.6-.768.714.714,0,0,0-.772.515l-.059.079a.716.716,0,0,0,.664.869" fill="#fff"/><path d="M566.615-451a.991.991,0,0,1-.815-1.067,1.118,1.118,0,0,1,1.088-.909l.048-.016c1,.348.944,2.153-.321,1.992Zm.265-2.376a1.442,1.442,0,0,0-1.5,1.32,1.384,1.384,0,0,0,1.295,1.461,1.332,1.332,0,0,0,1.348-1.271,1.489,1.489,0,0,0-1.019-1.444l-.128-.067" fill="#fff"/><path d="M565.555-448.195a.3.3,0,0,1-.087-.411l.033-.025c.091-.1.1-.195.263-.173.184.023.272.268.227.428a.307.307,0,0,1-.436.181Zm.829,0a.785.785,0,0,0-.532-1.036.677.677,0,0,0-.517.107.379.379,0,0,0-.16.416.642.642,0,0,0,.116.844.737.737,0,0,0,1.093-.331" fill="#fff"/><path d="M568.845-444.608c.005.472-.4,1.136-.961.925s-.559-.888-.413-1.384a.669.669,0,0,1,.656-.453C568.589-445.511,568.841-445.014,568.845-444.608Zm-.669-1.336c-.552-.035-1.373.5-1.108,1.132l.012.013a1.189,1.189,0,0,0,.705,1.52c.757.251,1.429-.489,1.484-1.2a1.313,1.313,0,0,0-1.093-1.468" fill="#fff"/><path d="M567.759-438.97c-.129-.012-.2-.121-.249-.247l.08-.056c.071-.112.008-.237.143-.308s.24.043.263.183S567.951-438.954,567.759-438.97Zm-.161-1.013a.607.607,0,0,0-.351.356v.008l-.072.105a1.137,1.137,0,0,0,.117.676.631.631,0,0,0,.5.273c.449.007.681-.536.613-.921a.6.6,0,0,0-.8-.5" fill="#fff"/><path d="M549.8-361.646a19.716,19.716,0,0,0,4.877,4.371c.261.152.631-.179.383-.424-1.513-1.5-3.209-2.841-4.788-4.281q.828-.586,1.655-1.175a19.52,19.52,0,0,0,5.733,5.645c-1.26,1.075-2.495,2.175-3.735,3.269a29.25,29.25,0,0,0-5.8-6.215l1.677-1.191Zm5.5-3.9a.621.621,0,0,0-.048-.977c-3.105-2.241,4.373-6.424,5.811-7.447l8.729-6.219L587-392.45l.047-.045a64.215,64.215,0,0,0,6.459,8.543c.169.187.524-.013.387-.251a65.243,65.243,0,0,0-6.585-9.167v-.005a.956.956,0,0,0-.539-.663l-.039-.008a5.2,5.2,0,0,1,1.06-1.111c1.02,1.489,2.173,2.892,3.245,4.343,1.152,1.563,2.24,3.216,3.517,4.68a.33.33,0,0,0,.547-.356,34.6,34.6,0,0,0-3.151-4.717,48.217,48.217,0,0,0-3.572-4.408l.02-.015,2.729-1.873,4.9-3.36,8.237,12.143c-2.532,3.471-6.356,7.919-11.092,5.672a.61.61,0,0,0-.605.112l-3.52,3.045a9.353,9.353,0,0,0-8.987-3.272,8.881,8.881,0,0,0-6.756,6.931,8.806,8.806,0,0,0,.265,4.791c.5,1.433,1.221,2.592.172,4.048a20.818,20.818,0,0,1-2.6,2.62c-3.141,3-6.713,5.748-11.277,5.571a.574.574,0,0,0-.544.307c-.421.341-.837.689-1.253,1.04-1.88-1.895-3.745-3.761-5.579-5.7l2.812-2Zm-1.1,12.632c1.824-1.681,3.667-3.344,5.429-5.091l.151.037a14.279,14.279,0,0,0,9.475-3.493,49.332,49.332,0,0,0,4.313-3.965c1.3-1.3,2.387-2.565,1.895-4.5-.511-2.005-1.393-3.485-1.033-5.649a8.125,8.125,0,0,1,3.119-5.18c3.491-2.559,8.569-1.265,10.935,2.163a.622.622,0,0,0,.869.071q1.23-1.062,2.455-2.123c.268-.231.76-.88,1.116-.965.413-.1.709.1,1.129.2a7.427,7.427,0,0,0,4.047-.239c3.316-1.081,5.472-4,7.427-6.709a.639.639,0,0,0-.037-.752l-8.827-13.013a.63.63,0,0,0-.871-.069l-4.465,3.064c-1.513,1.037-3.193,1.985-4.595,3.167-.82.691-1.608,2.064-1.1,2.977L565.5-378.644c-3.337,2.377-6.839,4.624-10.047,7.173-1.611,1.281-2.931,3.68-1.519,5.383q-3.612,2.57-7.221,5.141a.616.616,0,0,0,.048.967,30.265,30.265,0,0,1,6.611,7,.59.59,0,0,0,.827.065" fill="#fff"/><path d="M583.285-370.36l-.159.217c-2.247-.021-4.621-.08-6.187-1.959-2.185-2.621.243-5.688,2.661-6.98,2.456-1.311,5.449-1.229,6.767,1.568,1.463,3.1-.741,5.423-3.083,7.153Zm-3.78-10c-2.748,1.292-5.529,4.365-4.268,7.6s5.155,4.047,8.255,3.387a.467.467,0,0,0,.405-.041l.159-.1.128-.033.188-.165c2.724-1.795,4.595-4.848,3.171-8.128-1.437-3.308-4.98-3.955-8.037-2.519" fill="#fff"/><path d="M543.392-343.366a17.907,17.907,0,0,1,13.307-4.977,8.22,8.22,0,0,0-4.783,4.556.3.3,0,0,0,.535.273,13.955,13.955,0,0,1,2.844-3.172,10.616,10.616,0,0,1,3.031-1.5,17.8,17.8,0,0,1,11.349,6.375.622.622,0,0,0,.969-.048c5.349-5.965,11.989-14.077,9.967-22.557a7.9,7.9,0,0,0,7.063-.579c.261-.179-.025-.531-.283-.435a10.29,10.29,0,0,1-6.9.557,13.679,13.679,0,0,0-.465-1.415,8.377,8.377,0,0,0,9.687-3.989,50.541,50.541,0,0,1-3.255,34,.618.618,0,0,0,.379.784,9.253,9.253,0,0,1,6.808,8.577c-1.024-.375-2.163-.429-3.215-.728-1.177-.332-2.312-.768-3.455-1.2-.356-.136-.66.419-.312.611A19.333,19.333,0,0,0,590.4-326.7a9.447,9.447,0,0,0,3.235.624,8.112,8.112,0,0,1-.163,1.235,294.571,294.571,0,0,1-50.076-18.527Zm44.488,6.908a51.571,51.571,0,0,0,2.545-35.888c-.155-.523-1.021-.74-1.188-.085a7.079,7.079,0,0,1-8.9,4.952.6.6,0,0,0-.763.381.482.482,0,0,0-.621.616c3.095,9.06-3.107,16.948-8.805,23.349a19.152,19.152,0,0,0-28.2-.52.624.624,0,0,0,.193,1.047A294.7,294.7,0,0,0,593.718-323.5a.625.625,0,0,0,.784-.377,10.452,10.452,0,0,0-6.623-12.583" fill="#fff"/><path d="M584.716-374.987c-.285,1.337-.931,2.563-2.415,2.829a3.281,3.281,0,0,1-3.364-1.728c-.823-1.588.591-3.241,1.941-3.889a3.063,3.063,0,0,1,3.919.787.127.127,0,0,0,.22-.105c-.228-1.753-2.728-1.8-4.007-1.329-1.512.556-3.219,2.265-3,4.023.211,1.739,2.345,3.08,3.977,2.995a3.553,3.553,0,0,0,3.352-3.455c-.007-.329-.541-.507-.62-.127" fill="#fff"/><path d="M561.341-360.951c2-.013,3.807-1.587,5.356-2.66.2-.139-.017-.452-.228-.351-1.107.533-2.013,1.392-3.112,1.941-1.9.952-4.3.663-4.821-1.725a.179.179,0,0,0-.352.068,3.137,3.137,0,0,0,3.157,2.727" fill="#fff"/><path d="M569.011-365.4c.424-.3.836-.619,1.249-.937a3.862,3.862,0,0,0,1.043-.979.256.256,0,0,0-.319-.373,3.894,3.894,0,0,0-1.181.815c-.4.335-.795.669-1.181,1.017a.3.3,0,0,0,.389.457" fill="#fff"/><path d="M589.963-381.6a14.127,14.127,0,0,0,1.933-2.279.229.229,0,0,0-.335-.3,14.418,14.418,0,0,0-2.028,2.284c-.22.259.209.543.429.3" fill="#fff"/><path d="M552.237-342.107a.272.272,0,0,0-.4-.361,1.475,1.475,0,0,0-.461,1.681c.167.4.693.149.667-.221a1.853,1.853,0,0,1,.192-1.1" fill="#fff"/><path d="M582.657-330.1c-3.891-1.669-7.875-3.129-11.839-4.615s-7.9-3.1-11.935-4.344a.257.257,0,0,0-.169.484c3.859,1.728,7.887,3.117,11.839,4.615s7.911,3.031,11.935,4.343a.256.256,0,0,0,.169-.483" fill="#fff"/><path d="M584.389-540.279c-2.895,2.716-5.775,5.813-7.348,9.513a10.79,10.79,0,0,0-.915,4.055c-.605-3.816,1.761-7.607,4.007-10.56a31.39,31.39,0,0,1,10.667-8.9l.073-.075c.171.06.364-.155.2-.285a44.044,44.044,0,0,1-5.377-5.433q-2.618-3-5.211-6.016-4.936-5.746-9.995-11.388l.169-.151c7.439,7.36,13.136,16.307,21.219,23.032C589.317-544.495,586.76-542.5,584.389-540.279Zm-15.552,15.627a19.22,19.22,0,0,0-6.892,5.425,29.2,29.2,0,0,0-4.243,6.4,17.731,17.731,0,0,0-1.3,3.277c-6.951-9.235-15.355-17.16-23.747-25.061l.125-.145c3.892,3.923,8.031,7.605,11.937,11.516a159.662,159.662,0,0,1,11.545,12.648c.119.147.335-.057.213-.2l-.023-.027a21.243,21.243,0,0,1,2.752-6.031,31.125,31.125,0,0,1,4.615-5.229c2.8-2.547,6.72-4.529,10.485-3.667a14.262,14.262,0,0,0-5.467,1.1Zm-34.789-11.685a239.826,239.826,0,0,1,21.317,22.984.286.286,0,0,0,.365.092.248.248,0,0,0,.384-.136,17.471,17.471,0,0,1,5.487-10.66,17.054,17.054,0,0,1,11.265-3.98.356.356,0,0,0,.345-.255,25.985,25.985,0,0,1,15.552-18.947.356.356,0,0,0-.071-.649,5.325,5.325,0,0,1-2.831-1.783c-.909-.936-1.789-1.9-2.673-2.859q-2.678-2.9-5.28-5.877-4.33-4.948-8.437-10.084l.109-.072c.225-.227.471-.431.712-.636q4.89,5.8,9.912,11.491c3.355,3.805,6.509,7.955,10.393,11.245a31.784,31.784,0,0,0-11.051,9.405c-2.245,3.052-4.985,7.477-3.459,11.38-4.143-1.795-8.653.008-11.911,2.791a31.023,31.023,0,0,0-5.087,5.615,14.444,14.444,0,0,0-2.816,6.237q-5.392-6.47-11.3-12.457c-3.879-3.937-7.817-7.892-11.979-11.536.324-.405.639-.819.987-1.2Zm6.847-10.676a30.8,30.8,0,0,1,4.777-3.612,23.3,23.3,0,0,1,2.68-1.392c.549-.243,2.435-1.287,2.979-.728l.028.021q4.972,6.1,10.2,11.981c3.36,3.772,6.733,7.671,10.447,11.113-4.561-2.717-10.239-.263-13.693,3.3-2.577,2.656-4.732,6.972-3.817,10.773a256.9,256.9,0,0,0-21.481-22.753,77.016,77.016,0,0,1,7.879-8.7Zm46.628-.455a26.708,26.708,0,0,0-14.692,17.66c-.688-4.239,1.059-8.459,3.607-11.827C578.932-544.935,583.045-548.728,587.523-547.468Zm-32.065,33.1a11.932,11.932,0,0,1-.071-5.739,13.362,13.362,0,0,1,3.317-5.631c3.247-3.391,8.549-5.823,12.889-3.316a19.834,19.834,0,0,0-10.512,3.041c-3.465,2.029-5.369,6.2-5.488,10.129l.14.021a20.632,20.632,0,0,1,1.575-5.639,10.059,10.059,0,0,1,4.2-4.412,19.125,19.125,0,0,1,9.66-2.765,17.734,17.734,0,0,0-9.912,4.045,17,17,0,0,0-5.549,10.568Zm6.955-53.951a18.115,18.115,0,0,1,4.387-1.643c.591-.136.568-.039.944.436q.49.62.984,1.237,1.04,1.3,2.1,2.593,4.056,4.962,8.319,9.748,2.454,2.754,4.971,5.447a26.5,26.5,0,0,0,1.987,2.045c-3.953-.273-7.683,3.165-9.957,6.047-2.705,3.427-4.593,7.772-4.083,12.157-1.532-1.719-3.152-3.363-4.712-5.053q-2.688-2.916-5.327-5.88Q556.853-547,551.947-553.04c.48-6.475,4.793-12.291,10.465-15.277Zm8.515-1.939a.359.359,0,0,0-.5-.012c-.147.148-.3.284-.46.419l-.063.053c-.275.233-.556.461-.812.721l-.037.057c-.448-.561-.9-1.12-1.344-1.684l-.337-.1c-8.236,1.584-15.2,8.823-16.085,17.212a1.843,1.843,0,0,0-1.047.112,22.113,22.113,0,0,0-2.911,1.152,27.66,27.66,0,0,0-5.532,3.6,68.771,68.771,0,0,0-9.5,10.193.36.36,0,0,0-.011.5q.7.67,1.4,1.341l-.08.056c-.377.391-.719.815-1.072,1.228l-.179.205c-.113.131-.228.261-.348.387a.321.321,0,0,0-.009.447c8.541,8.249,17.239,16.311,24.339,25.888.207.28.569.023.609-.237a13.565,13.565,0,0,1,1.373-3.744,28.513,28.513,0,0,1,3.932-6.028,19.606,19.606,0,0,1,6.436-5.321,12.719,12.719,0,0,1,7.824-1.007.36.36,0,0,0,.443-.424c-.671-3.668,1.483-7.216,3.671-9.972a53.51,53.51,0,0,1,8.375-8.113c1.216-.984,2.46-1.931,3.7-2.889a.355.355,0,0,0,.011-.5c-8.336-6.828-14.116-16.037-21.772-23.535" fill="#fff"/><path d="M546.449-525.524a.174.174,0,0,0,.251-.241c-1.832-2.171-3.893-4.176-5.859-6.227s-3.853-4.235-5.976-6.112a.151.151,0,0,0-.217.208c1.78,2.2,3.884,4.195,5.841,6.243s3.872,4.2,5.96,6.129" fill="#fff"/><path d="M552.163-522.116c-2.143-2.143-4.376-4.188-6.472-6.38s-4.027-4.524-6.1-6.736l-.2.145a68.6,68.6,0,0,0,5.843,6.781,75.341,75.341,0,0,0,6.66,6.441c.176.145.435-.083.264-.252" fill="#fff"/><path d="M580.076-553.748c-1.929-2.189-4.036-4.217-5.944-6.432s-3.624-4.565-5.435-6.856c-.125-.157-.392.039-.285.208a58.752,58.752,0,0,0,5.229,6.875,49.869,49.869,0,0,0,6.223,6.409.147.147,0,0,0,.212-.2" fill="#fff"/><path d="M558.093-524.265a24.2,24.2,0,0,1,2.748-2.449,14.17,14.17,0,0,1,3.043-1.6,15.029,15.029,0,0,1,3.335-.835,19.385,19.385,0,0,1,3.68.049.131.131,0,0,0,.04-.256,12.749,12.749,0,0,0-7.159.768,12.176,12.176,0,0,0-5.8,4.232l.113.091" fill="#fff"/><path d="M581.019-545.065a20.148,20.148,0,0,0-5.476,6.449,20.092,20.092,0,0,0-2.721,8.005l.188.028a28.6,28.6,0,0,1,2.8-7.873,28.765,28.765,0,0,1,5.344-6.424l-.135-.185" fill="#fff"/><path d="M585.433-547.063a15.1,15.1,0,0,0-6.685,5.38l.137.109a19.024,19.024,0,0,1,2.891-2.943,26.82,26.82,0,0,1,3.741-2.328c.111-.063.047-.265-.084-.219" fill="#fff"/><path d="M553.623-518.464a34.986,34.986,0,0,0-4.739-4.365l-.075.093c1.584,1.447,3.1,2.94,4.6,4.472a.145.145,0,0,0,.209-.2" fill="#fff"/><path d="M567.477-567.047a12.683,12.683,0,0,0-1.3-1.62l-.135.1a12.511,12.511,0,0,0,1.291,1.632l.147-.108" fill="#fff"/><path d="M513.864-456.179c-.22,7.284-4.2,15.584-9.205,20.537a50.322,50.322,0,0,1-5.508,4.744l-.032-.14c-.077-.416-.152-.833-.225-1.249-.045-.243-.467-.191-.437.059.052.447.107.892.159,1.339.012.124.02.241.035.353-.249.179-.5.352-.753.524-.511-4.352-1.28-8.777-4.405-12.084l-.135.135c3.107,3.32,3.721,7.851,4.173,12.2q-.622.412-1.259.8c-1.7-9.972-9.985-17.545-15.585-25.452-3.133-4.425-6.235-9.68-6.468-15.24a12.348,12.348,0,0,1,1.735-6.811c.667.1,1.332.215,1.995.337,9.447,1.743,19.32,4.628,27.172,10.319,4.12,2.985,8.751,9.464,8.745,9.631Zm-28.1,31.333a32.339,32.339,0,0,1-17.579-1.588,65.479,65.479,0,0,1-6.151-13.847A50.171,50.171,0,0,1,460.2-455.4a49.763,49.763,0,0,1,5.924-21.812,58.483,58.483,0,0,1,8.647.577c-.155.288-.308.577-.445.879-2.529,5.515-.671,11.591,2.037,16.671,2.657,4.984,6.367,9.307,9.821,13.74,4.051,5.2,7.524,10.5,9.065,16.98a30.917,30.917,0,0,1-9.489,3.524Zm-34.921-16.719a33.36,33.36,0,0,1-2.855-6.939c.428-1.42.816-2.888,1.125-4.32.048-.219-.279-.391-.384-.161a14.888,14.888,0,0,0-1.06,3.28c-.185-.749-.341-1.505-.475-2.264,1.228-2.824,1.989-5.819,3.352-8.608a82.548,82.548,0,0,1,5.049-8.475,38.791,38.791,0,0,0,3.985-7.595,36.1,36.1,0,0,1,3.993-.487c.407-.025.812-.037,1.217-.053a51.06,51.06,0,0,0-4.339,35.307,43.563,43.563,0,0,0,6.487,14.941,33.5,33.5,0,0,1-16.1-14.627Zm-.32-32.544a57.589,57.589,0,0,1,7.837-2.305,51.4,51.4,0,0,1-4.857,8.645,56.179,56.179,0,0,0-4.377,7.867,35.826,35.826,0,0,0-2.212,6.015A35.923,35.923,0,0,1,450.522-474.108Zm3.533-5.673a34.76,34.76,0,0,1,5.267-5.519,14.206,14.206,0,0,1-.536,7.713,28.581,28.581,0,0,0-7.711,2.423A36.063,36.063,0,0,1,454.055-479.781Zm6.215-6.288c.157-.124.312-.249.472-.371.055.864.111,1.731.2,2.583.021.225.371.316.425.057a8.022,8.022,0,0,0-.028-3.076,34.874,34.874,0,0,1,17.261-6.549,46.09,46.09,0,0,0-13.259,15.2,47.137,47.137,0,0,0-5.384.451,14.981,14.981,0,0,0,.313-8.295Zm20.529-7.476a30.682,30.682,0,0,1,11.36,1.889,31.543,31.543,0,0,1,8.849,5.068c-3.736-1.3-8.464-.467-12.053.355-5.332,1.219-10.592,3.925-13.583,8.577a62.973,62.973,0,0,0-8.676-.585,47.8,47.8,0,0,1,2.573-4.045A47.448,47.448,0,0,1,480.8-493.545Zm28.708,17.28c3.06,5.731,4,12.124,4.8,18.487a24.473,24.473,0,0,0-6.329-7.189,47.231,47.231,0,0,0-12.547-7.3A88.535,88.535,0,0,0,476.6-477.48a18.824,18.824,0,0,1,8.365-6.4,33.333,33.333,0,0,1,9.979-2.176c2.979-.211,6.376-.032,8.781,1.943a34.054,34.054,0,0,1,5.777,7.848Zm5.863,18.681c-.528-6.7-1.163-11.02-3.912-17.231a33.97,33.97,0,0,0-14.609-15.963,32.11,32.11,0,0,0-16.335-3.88h-.045a35.813,35.813,0,0,0-24.113,10.477C446.17-474,442.532-458.1,448.052-444.7a34.393,34.393,0,0,0,33.108,21.551,34.378,34.378,0,0,0,22.723-10.133,37.769,37.769,0,0,0,11.487-24.305" fill="#fff"/><path d="M470.9-465.435a20.3,20.3,0,0,1,.741-8.627c.041-.14-.164-.189-.215-.059-2.088,5.359-1.5,12.444,2.229,17.009.148.184.429-.051.319-.247a22.4,22.4,0,0,1-3.075-8.077" fill="#fff"/><path d="M476.036-453.995c-.2-.271-.667-.013-.464.271a15,15,0,0,0,1.912,2.485.2.2,0,0,0,.311-.241,14.666,14.666,0,0,0-1.759-2.515" fill="#fff"/><path d="M459.75-474.344c-2.057,4.276-5.576,8.011-6.912,12.611-.053.183.233.316.316.133,1.98-4.385,5.033-8.189,6.857-12.633.061-.149-.191-.256-.261-.111" fill="#fff"/><path d="M488.836-412.73c-.015-.455-.051-.909-.076-1.364a.442.442,0,0,0-.884,0c-.027.455-.061.909-.077,1.364a1.511,1.511,0,0,0,.219,1.153.425.425,0,0,0,.6,0,1.5,1.5,0,0,0,.217-1.153" fill="#fff"/><path d="M489.309-404.576c-.075-.445-.811-.341-.788.107.105,2.093-.175,4.909.86,6.808a.3.3,0,0,0,.548-.072c.6-2.057-.277-4.776-.62-6.843" fill="#fff"/><path d="M497.531-383.339c-.493-.564-1.263-.817-1.764-1.42a4.8,4.8,0,0,1-1.051-2.107c-.092-.5-.885-.376-.879.12a4.319,4.319,0,0,0,.884,2.793c.527.672,1.508,1.615,2.44,1.505a.53.53,0,0,0,.369-.892" fill="#fff"/><path d="M510.916-371.484c-1.345-1.832-3.6-3.161-5.427-4.46-.321-.227-.683.268-.415.536.853.848,1.684,1.7,2.591,2.495a13.314,13.314,0,0,0,2.637,2.041c.361.179.9-.22.613-.612" fill="#fff"/><path d="M526.944-363.4c-2.183-1.309-4.983-1.865-7.431-2.437a.468.468,0,0,0-.248.9c2.347.933,4.941,2.063,7.487,2.24a.382.382,0,0,0,.192-.705" fill="#fff"/><path d="M534.511-361.231c-.465-.476-1.259-.168-1.839-.109a.472.472,0,0,0,0,.943c.581.06,1.372.368,1.839-.111a.518.518,0,0,0,0-.723" fill="#fff"/><path d="M513.916-500.133c-1.7,1.6-2.66,3.987-3.847,5.949-.271.449.4.82.695.405,1.331-1.887,3.113-3.715,3.9-5.92.157-.443-.443-.723-.748-.435" fill="#fff"/><path d="M524.159-510.569c-1.755,1.376-3.065,3.425-4.457,5.155-.388.481.256,1.168.695.693,1.531-1.659,3.4-3.289,4.52-5.264.289-.507-.347-.907-.757-.584" fill="#fff"/><path d="M533.409-518.073c-.793.017-1.376.787-1.947,1.279-.7.6-1.373,1.236-2.06,1.853-.365.328.121.98.532.689.752-.535,1.516-1.051,2.255-1.6.589-.436,1.5-.857,1.688-1.607a.49.49,0,0,0-.468-.615" fill="#fff"/><path d="M613.637-314.526a7.922,7.922,0,0,0-1.741-1.911c-.668-.633-1.379-1.22-2.047-1.855a.415.415,0,0,0-.587.587c.635.668,1.221,1.377,1.855,2.048a8,8,0,0,0,1.908,1.743.451.451,0,0,0,.612-.612" fill="#fff"/><path d="M617.976-302.759a.486.486,0,0,0-.687.687c1.7,1.864,1.893,3.881,2.184,6.255a.424.424,0,0,0,.828.112c.983-2.471-.507-5.413-2.325-7.053" fill="#fff"/><path d="M622.028-281.462a15.063,15.063,0,0,1-.208-3.264.423.423,0,0,0-.828-.112c-.355,1.849-.651,4.833.863,6.293a.4.4,0,0,0,.667-.275,12.18,12.18,0,0,0-.493-2.643" fill="#fff"/><path d="M620.76-270.1c-.653,2.629-1.556,5.515-1.548,8.24a.459.459,0,0,0,.9.121c.976-2.54,1.156-5.557,1.487-8.248.059-.479-.72-.569-.835-.113" fill="#fff"/><path d="M612.838-250.229c-.411.784-.835,1.56-1.229,2.353a8.361,8.361,0,0,0-.961,2.232c-.067.408.411.78.744.432a8.111,8.111,0,0,0,1.212-2.083c.4-.793.764-1.6,1.145-2.4.291-.607-.593-1.144-.911-.535" fill="#fff"/><path d="M606.335-238.421c-1.22,1.237-2.529,2.408-3.668,3.721a.546.546,0,0,0,.772.771c1.259-1.2,2.367-2.564,3.545-3.843.4-.433-.232-1.072-.649-.649" fill="#fff"/><path d="M595.84-228.946a25.5,25.5,0,0,1-5,4.432.578.578,0,0,0,.581,1,16.837,16.837,0,0,0,5.255-4.785c.363-.476-.455-1.112-.835-.644" fill="#fff"/><path d="M581.947-218.639a10.912,10.912,0,0,1-2.683,1.419,24.8,24.8,0,0,0-2.5.769c-.512.245-.185.9.257.953,1.833.225,4.069-1.161,5.473-2.2.551-.409.029-1.344-.548-.937" fill="#fff"/></g></svg>