<svg xmlns="http://www.w3.org/2000/svg" xmlns:xlink="http://www.w3.org/1999/xlink" width="293" height="233" viewBox="0 0 293 233"><defs><clipPath id="a"><rect width="293" height="233" transform="translate(0 0.006)" fill="none"/></clipPath></defs><g transform="translate(0 -0.006)" clip-path="url(#a)"><path d="M285.18,52.465c-11.706-20.554-31.436-35.008-52.768-38.681-19.25-3.312-39.532,2.2-55.479,14.838l3.515-3.043c-12.561,9-28.88,8.412-43.17,3.727S109.862,16.265,95.935,10.331A131.827,131.827,0,0,0,59.617.647C41.871-1.444,22.046,1.088,9.691,15.66-4.076,31.888-3.02,61.154,11.873,76.057c7.573,7.579,17.493,11.3,26.143,17.211s16.658,15.742,15.921,27.161c-.683,10.571-8.611,18.678-16.815,23.764-6.344,3.936-14.154,8.231-14.919,16.389-.74,7.884,5.828,14.061,12.11,17.576a67.3,67.3,0,0,0,66.046-.283c7.271-4.151,13.955-9.675,21.58-12.911,20.021-8.5,42.082.057,63.283,3.185a123.631,123.631,0,0,0,53.822-4.013c10.5-3.176,21.039-8.031,28.413-17.073,5.3-6.544,8.622-14.787,11.742-22.934q4.978-13.038,9.567-26.259c1.835-5.293,3.643-10.687,4.123-16.347C293.735,71.262,290.112,61.118,285.18,52.465ZM78.924,53.915H60.155a2.146,2.146,0,0,1,0-4.272H66.6a2.251,2.251,0,0,1,.619-2.931c.045-.031.091-.06.139-.086h-2.11a2.146,2.146,0,0,1,0-4.272H84.01a2.046,2.046,0,0,1,1.958,2.126,2.171,2.171,0,0,1-1.051,1.907H87.03a2.145,2.145,0,0,1,0,4.272H80.588a2.261,2.261,0,0,1,.3,1.13,2.052,2.052,0,0,1-1.961,2.128Zm30.941,30.47h-6.442a2.255,2.255,0,0,1-.616,2.936,1.822,1.822,0,0,1-1.036.324H83.005a2.146,2.146,0,0,1,0-4.272h6.442a2.251,2.251,0,0,1,.621-2.931q.068-.047.139-.087H88.094a2.145,2.145,0,0,1,0-4.272H106.86a2.045,2.045,0,0,1,1.95,2.128,2.167,2.167,0,0,1-1.054,1.9h2.11a2.145,2.145,0,0,1,0,4.272h-.006Zm28.251-22.871.3.52a4.108,4.108,0,0,1-1.907-.209,4.69,4.69,0,0,1-2.6-1.082l1.646-.3a4.631,4.631,0,0,1,.647-2.2l1.1,1.885,2.943-.537A5.265,5.265,0,0,1,138.116,61.513Zm43.353,21.713.3.52a4.15,4.15,0,0,1-1.907-.209,4.69,4.69,0,0,1-2.6-1.082l1.646-.3a4.631,4.631,0,0,1,.647-2.2l1.1,1.885L183.6,81.3A5.265,5.265,0,0,1,181.468,83.226Zm34.175-17.87.3.52a4.108,4.108,0,0,1-1.907-.209,4.694,4.694,0,0,1-2.608-1.1l1.646-.3a4.63,4.63,0,0,1,.647-2.2l1.1,1.885,2.94-.537A5.258,5.258,0,0,1,215.643,65.356Zm23.1-22.411H232.3a2.255,2.255,0,0,1-.616,2.936,1.822,1.822,0,0,1-1.036.324H211.891a2.145,2.145,0,0,1,0-4.272h6.445A2.25,2.25,0,0,1,218.962,39q.07-.047.144-.089h-2.113a2.145,2.145,0,0,1,0-4.272h18.769a2.045,2.045,0,0,1,1.95,2.128,2.167,2.167,0,0,1-1.054,1.9h2.09a2.145,2.145,0,0,1,0,4.272Z" fill="#25d4dc" opacity="0.1" style="isolation:isolate"/><ellipse cx="14.875" cy="5.098" rx="14.875" ry="5.098" transform="translate(145.753 222.811)" fill="#25d4dc" opacity="0.1" style="isolation:isolate"/><ellipse cx="8.008" cy="2.744" rx="8.008" ry="2.744" transform="translate(175.31 193.616)" fill="#25d4dc" opacity="0.1" style="isolation:isolate"/><ellipse cx="8.008" cy="2.744" rx="8.008" ry="2.744" transform="translate(216.704 201.302)" fill="#25d4dc" opacity="0.1" style="isolation:isolate"/><path d="M78.821,219.208a16.415,16.415,0,0,0-6.553.133c-2.074.636-3.793,2.492-3.177,4.267,1.376,3.956,9.451,1.2,13.175,3.905,1.33.966,1.847,2.487,2.886,3.673,1.68,1.927,4.568,2.826,7.356,3.32,16.748,2.97,35.842-4.674,50.521,2.687,4.754,2.385,8.5,6.18,13.716,7.771,6.906,2.108,14.468-.144,21.613-1.588a96.557,96.557,0,0,1,27.027-1.554c6.681.565,15.568.754,17.707-4.566,1.376-3.422-1.536-7.231-5.4-8.85s-8.39-1.568-12.706-1.413c-8.33.328-16.663.989-24.994.667-16.109-.627-31.327-7.629-47.014-7.861C114.709,219.555,97.175,221.237,78.821,219.208Z" fill="#25d4dc" opacity="0.1" style="isolation:isolate"/><ellipse cx="6.939" cy="1.286" rx="6.939" ry="1.286" transform="translate(37.182 222.455)" fill="#25d4dc" opacity="0.1" style="isolation:isolate"/><ellipse cx="6.939" cy="1.286" rx="6.939" ry="1.286" transform="translate(227.156 223.308)" fill="#25d4dc" opacity="0.1" style="isolation:isolate"/><path d="M260.323,232.537a3.35,3.35,0,0,0,.989-1.636,1.506,1.506,0,0,0-.691-1.664c-.634-.266-1.312.215-1.824.7s-1.1,1.04-1.775.938a3.134,3.134,0,0,0,.835-2.772,1.215,1.215,0,0,0-.232-.565c-.353-.413-.989-.235-1.412.09-1.34,1.034-1.713,3.029-1.721,4.826a9.942,9.942,0,0,1-.023-1.978,2.138,2.138,0,0,0-.68-1.76,1.935,1.935,0,0,0-1.031-.283,2.026,2.026,0,0,0-1.685.526,1.956,1.956,0,0,0,.067,2.261,6.891,6.891,0,0,0,1.742,1.532,4.044,4.044,0,0,1,1.247,1.3,1.5,1.5,0,0,1,.093.232H258A10.517,10.517,0,0,0,260.323,232.537Z" fill="#25d4dc"/><path d="M71.656,220.776s-3.62-13.482.68-23.4a23.156,23.156,0,0,0,1.577-13.366,38.369,38.369,0,0,0-1.724-6.27" fill="none" stroke="#535461" stroke-miterlimit="10" stroke-width="0.54"/><path d="M74.856,171.467c0,1.653-2.729,6.443-2.729,6.443s-2.726-4.79-2.726-6.443a2.889,2.889,0,0,1,2.644-3.083,2.85,2.85,0,0,1,2.811,2.9q0,.092,0,.184Z" fill="#25d4dc"/><path d="M79.365,180.62c-.819,1.385-5.483,3.781-5.483,3.781s.085-5.651.9-7.033a2.582,2.582,0,0,1,3.794-.771A3.175,3.175,0,0,1,79.365,180.62Z" fill="#25d4dc"/><path d="M79.169,196.257c-1.345.746-6.475.232-6.475.232s2.672-4.829,4.017-5.572a2.631,2.631,0,0,1,3.63,1.438,3.139,3.139,0,0,1-1.171,3.9Z" fill="#25d4dc"/><path d="M76.59,208.06c-1.211.981-6.346,1.413-6.346,1.413s1.891-5.256,3.092-6.239a2.585,2.585,0,0,1,3.784.829,3.2,3.2,0,0,1-.54,3.975Z" fill="#25d4dc"/><path d="M68.154,184.723c1.082,1.15,6.114,2.343,6.114,2.343s-1.232-5.485-2.319-6.635a2.563,2.563,0,0,0-3.856.17,3.206,3.206,0,0,0,.055,4.122Z" fill="#25d4dc"/><path d="M65.3,198.56c1.345.743,6.473.229,6.473.229s-2.672-4.829-4.017-5.572a2.628,2.628,0,0,0-3.64,1.407A3.137,3.137,0,0,0,65.3,198.56Z" fill="#25d4dc"/><path d="M64.2,212.426c1.211.983,6.346,1.413,6.346,1.413s-1.891-5.256-3.092-6.236a2.585,2.585,0,0,0-3.784.829,3.2,3.2,0,0,0,.54,3.975Z" fill="#25d4dc"/><path d="M63.091,219.928s4.409-.961,5.586-2.241,6.465-3.518,7.052-1.919,7.936,7.039,2.94,8-11.757,1.28-13.226.641S63.091,219.928,63.091,219.928Z" fill="#a8a8a8"/><path d="M78.677,223.167c-5,.961-11.757,1.28-13.226.639-1.121-.486-1.9-2.826-2.206-3.919l-.155.042s.881,3.84,2.353,4.482,8.23.319,13.226-.641c1.443-.283,1.855-.927,1.7-1.752C80.254,222.545,79.752,222.96,78.677,223.167Z" opacity="0.2" style="isolation:isolate"/><path d="M235.515,206.057s1.417,2.032-.652,5.086-3.775,5.651-3.092,7.564c0,0,3.123-5.694,5.669-5.773S238.305,209.473,235.515,206.057Z" fill="#25d4dc"/><path d="M235.515,206.057a2.645,2.645,0,0,1,.291.639c2.479,3.193,3.8,6.174,1.415,6.248-2.219.071-4.88,4.422-5.519,5.521q.032.128.075.251s3.123-5.694,5.669-5.773S238.305,209.473,235.515,206.057Z" opacity="0.1" style="isolation:isolate"/><path d="M238.148,208.645a2.694,2.694,0,0,1-.165,1.294c-.09,0-.162-.565-.162-1.294s.09-.379.18-.379S238.148,207.93,238.148,208.645Z" fill="#ffd037"/><path d="M239.05,209.5c-.572.342-1.072.548-1.113.461s.384-.432.956-.774.348-.093.392,0S239.622,209.157,239.05,209.5Z" fill="#ffd037"/><path d="M228.04,206.057s-1.417,2.032.652,5.086,3.775,5.651,3.092,7.564c0,0-3.12-5.694-5.669-5.773S225.244,209.473,228.04,206.057Z" fill="#25d4dc"/><path d="M228.04,206.057a2.655,2.655,0,0,0-.291.639c-2.479,3.193-3.8,6.174-1.415,6.248,2.219.071,4.88,4.422,5.519,5.521a2.117,2.117,0,0,1-.077.251s-3.12-5.694-5.669-5.773S225.244,209.473,228.04,206.057Z" opacity="0.1" style="isolation:isolate"/><path d="M225.406,208.645a2.694,2.694,0,0,0,.165,1.294c.09,0,.162-.565.162-1.294s-.09-.379-.18-.379S225.406,207.93,225.406,208.645Z" fill="#ffd037"/><path d="M224.5,209.5c.572.342,1.069.548,1.113.461s-.384-.432-.956-.774-.348-.093-.392,0S223.933,209.157,224.5,209.5Z" fill="#ffd037"/><path d="M225.857,218.451s3.958-.136,5.153-1.065,6.089-2.043,6.385-.565,5.947,7.429,1.479,7.468-10.381-.763-11.572-1.557S225.857,218.451,225.857,218.451Z" fill="#a8a8a8"/><path d="M238.952,223.783c-4.468.04-10.381-.763-11.572-1.557-.907-.6-1.27-2.778-1.389-3.781h-.134s.258,3.5,1.443,4.3,7.1,1.6,11.572,1.557c1.288,0,1.734-.514,1.711-1.257C240.4,223.495,239.911,223.774,238.952,223.783Z" opacity="0.2" style="isolation:isolate"/><ellipse cx="14.875" cy="5.098" rx="14.875" ry="5.098" transform="translate(225.79 219.799)" fill="#25d4dc" opacity="0.1" style="isolation:isolate"/><path d="M164.073,90.013l-10.639,6.852s-12.8-3.64-9.276-6.748c1.567-1.382,2.224-4.335,2.466-7.189.075-.893.111-1.777.124-2.6q.032-2.176-.149-4.346s14.839-2.781,12.984,1.4a5.823,5.823,0,0,0-.108,3.62,14.351,14.351,0,0,0,.474,1.582A33.708,33.708,0,0,0,164.073,90.013Z" fill="#ffccd0"/><path d="M159.582,77.38a5.823,5.823,0,0,0-.108,3.62,8.762,8.762,0,0,1-6.04,2.458c-2.44,0-3.375-2.278-5.032-3.956-.129-.133-.922.229-1.031.09a6.465,6.465,0,0,0-.773-3.6S161.445,73.2,159.582,77.38Z" opacity="0.1" style="isolation:isolate"/><path d="M162.71,72.963c0,5.618-4.159,10.17-9.281,10.167s-9.274-4.56-9.271-10.179,4.159-10.17,9.281-10.167a9.114,9.114,0,0,1,7.825,4.719A10.905,10.905,0,0,1,162.71,72.963Z" fill="#ffccd0"/><path d="M161.264,67.5a2.444,2.444,0,0,1-.515.209,6,6,0,0,1-2.247.037.5.5,0,0,0-.35.048.8.8,0,0,0-.214.452,2.179,2.179,0,0,1-1.422,1.269,5.848,5.848,0,0,1-3.777.1,1.184,1.184,0,0,0-.515-.088c-.4.054-.644.531-.709.972a6.514,6.514,0,0,1-.178,1.32c-.258.718-.995,1.046-1.634,1.362s-1.342.822-1.373,1.594a6.874,6.874,0,0,0,.258,1.289,2.045,2.045,0,0,1-.879,1.978,19.685,19.685,0,0,1-.58,2.357,10.877,10.877,0,0,1-.532-14.374,8.713,8.713,0,0,1,13.108-.583A10.017,10.017,0,0,1,161.264,67.5Z" opacity="0.1" style="isolation:isolate"/><path d="M160.3,60.778a4.974,4.974,0,0,0-3.123-1.15c-.94.034-1.842.435-2.78.5-2.087.141-4.236-1.39-6.171-.523-1.422.639-2.34,2.453-3.865,2.631-.428.048-.858-.042-1.288-.02a1.245,1.245,0,0,0-1.1.616,2.161,2.161,0,0,0-.07,1.173,11.93,11.93,0,0,1-.626,5.293,5.154,5.154,0,0,0-.541,2.5A2.861,2.861,0,0,0,141.7,73.4a1.747,1.747,0,0,0,.43.749c.389.4.9.7,1.1,1.238.307.828-.258,1.859.16,2.628a1.974,1.974,0,0,0,.724.675q1.306.848,2.669,1.582a21.052,21.052,0,0,0,.631-2.543,2.045,2.045,0,0,0,.879-1.978,5.794,5.794,0,0,1-.258-1.289c.033-.771.732-1.28,1.373-1.6A2.852,2.852,0,0,0,151.04,71.5a6.539,6.539,0,0,0,.175-1.32c.064-.441.3-.921.709-.975a1.185,1.185,0,0,1,.515.09,5.867,5.867,0,0,0,3.777-.107,2.161,2.161,0,0,0,1.422-1.269c.049-.167.082-.359.216-.452a.492.492,0,0,1,.348-.048,6.124,6.124,0,0,0,2.247-.034,3.618,3.618,0,0,0,2.409-3.108C163.006,62.813,161.3,61.541,160.3,60.778Z" fill="#e3787d"/><path d="M160.3,60.778a6.533,6.533,0,0,0-1.147-.706c.191.119.381.246.562.384,1,.763,2.7,2.04,2.546,3.512a3.613,3.613,0,0,1-2.407,3.108,6.064,6.064,0,0,1-2.247.034.514.514,0,0,0-.35.048c-.134.093-.165.283-.216.452a2.144,2.144,0,0,1-1.42,1.269,5.836,5.836,0,0,1-3.78.107,1.207,1.207,0,0,0-.515-.09c-.4.054-.644.534-.709.975a6.539,6.539,0,0,1-.175,1.32c-.258.715-1,1.046-1.639,1.362s-1.337.822-1.371,1.594a6.716,6.716,0,0,0,.258,1.289,2.045,2.045,0,0,1-.879,1.978,21.473,21.473,0,0,1-.629,2.523c.2.11.387.226.582.331a21.046,21.046,0,0,0,.631-2.543,2.045,2.045,0,0,0,.879-1.978,5.793,5.793,0,0,1-.258-1.289c.033-.771.732-1.28,1.373-1.6A2.852,2.852,0,0,0,151.03,71.5a6.539,6.539,0,0,0,.175-1.32c.064-.441.3-.921.709-.975a1.185,1.185,0,0,1,.515.09,5.865,5.865,0,0,0,3.777-.107,2.161,2.161,0,0,0,1.422-1.269c.049-.167.082-.359.216-.452a.492.492,0,0,1,.348-.048,6.124,6.124,0,0,0,2.247-.034,3.618,3.618,0,0,0,2.409-3.108C163.006,62.813,161.3,61.541,160.3,60.778Z" opacity="0.1" style="isolation:isolate"/><path d="M140.03,76.2s-2.123,3.775-3.077,3.775a3.613,3.613,0,0,0-1.335.379,10.153,10.153,0,0,0-1.227.664l-3.442-3.933s.438-.509,1.031-1.224a24.944,24.944,0,0,0,3.069-4.239c.366-1.13,6.442-3.857,6.738-2.009S140.03,76.2,140.03,76.2Z" fill="#ffccd0"/><path d="M198.688,142.911s-.453.6-1.167,1.469c-1.976,2.419-5.952,6.943-7.818,6.666-2.535-.376-1.172-7.762.343-8.084a24.956,24.956,0,0,0,4.664-2.309c1.031-.593,1.781-1.065,1.781-1.065Z" fill="#ce828d"/><path d="M187.776,151.608c-3.955,1.769-3.442-6.5-3.283-7.683a17.507,17.507,0,0,0-.41-3.871c-.054-.283-.093-.466-.093-.466l1-2.781s4.9.1,4.9.828a9.5,9.5,0,0,0,.621,2.012c.484,1.272,1.074,2.648,1.074,2.648S191.731,149.845,187.776,151.608Z" fill="#ffccd0"/><path d="M164.05,217.784s-6.078,3.693-5.493.964a5.441,5.441,0,0,0-.108-2.21,20.178,20.178,0,0,0-1.379-3.928c-.6-1.328-1.149-2.294-1.149-2.294s6.151-4.258,6.225-2.651q.191,1.728.544,3.428c.376,1.995.855,4.309,1.134,5.626Z" fill="#ff748e"/><path d="M164.05,217.784s-6.078,3.693-5.493.964a5.441,5.441,0,0,0-.108-2.21,6.312,6.312,0,0,1,2.177-.523c.8-.644,2.788.461,3.2.7Z" opacity="0.1" style="isolation:isolate"/><path d="M160.625,216.337s-3.314.161-2.948,1.848-1.17,6.423-1.17,6.423-1.613,2.651-.587,3.857,9.959,2.088,10.325,1.043-1.031-7.548-1.031-7.548L163.9,217.1S161.522,215.614,160.625,216.337Z" fill="#4d507f"/><path d="M184.993,180.468l-4.566,1.413a11.416,11.416,0,0,0-.693-2.068,8.184,8.184,0,0,0-.536-1.009c-.724-1.147-1.8-2.063-3.334-1.549-3.35,1.13,0-7.268,0-7.268s.907-.424,1.822-.9l.214-.116a6.59,6.59,0,0,0,1.616-1.06c.33-.458,3.375,3.154,4.532,4.555.273.331.438.54.438.54l.214,3.151Z" fill="#ff748e"/><path d="M184.993,180.468l-4.566,1.413a11.416,11.416,0,0,0-.693-2.068c.186-.67.683-1.8,1.891-1.628,1.391.2,1.2-5.137-.758-6.423a7.389,7.389,0,0,0-3.126-1.365,2.729,2.729,0,0,1-.057-1.308l.214-.116a6.59,6.59,0,0,0,1.616-1.06c.33-.458,3.375,3.154,4.532,4.555a29.561,29.561,0,0,0,.652,3.69Z" opacity="0.1" style="isolation:isolate"/><path d="M178.036,170.4a2.581,2.581,0,0,1,1.48-3.178,2.123,2.123,0,0,1,.512-.114,3.011,3.011,0,0,1,3.208,1.7c1.685,3.295.951,7.152,2.489,8.678s2.2,6.5,1.1,7.225-4.736,4.256-5.079,2.246-1.819-6.663-1.819-6.663.294-2.331,1.989-2.091c1.394.2,1.2-5.137-.755-6.423a7.389,7.389,0,0,0-3.126-1.365Z" fill="#4d507f"/><path d="M162.689,211.093a56.38,56.38,0,0,1-5.62,1.517c-.6-1.328-1.149-2.294-1.149-2.294s6.151-4.258,6.225-2.651Q162.337,209.393,162.689,211.093Z" opacity="0.1" style="isolation:isolate"/><path d="M179.2,178.809c-.724-1.147-1.8-2.063-3.334-1.548-3.35,1.13,0-7.268,0-7.268s1.054-.492,2.036-1.014c.606-.045,1.654.023,1.992.916A16.368,16.368,0,0,1,179.2,178.809Z" opacity="0.1" style="isolation:isolate"/><path d="M178.819,179c-1.368,2.676-7.91,1.82-7.91,1.82-5.174-3.747-9.665-19.5-9.665-19.5l-.685,19.811s1.659,1.817,1.27,3a7.126,7.126,0,0,0,.294,3.317s1.464,17.666,1.072,18.74,1.368,3.64,1.368,3.64-9.276,3.213-10.157,2.142a1.9,1.9,0,0,1,0-2.261v-2.145c-4-8.994-4.1-17.881-4.38-18.2a12.547,12.547,0,0,1-.59-2.781,17.533,17.533,0,0,1,0-2.359,4.408,4.408,0,0,0-.472-2.354c-.585-.856.472-3.428.472-3.428a18.3,18.3,0,0,0-1.451-5.781c-1.268-2.783-2.883-13.493-2.883-13.493a4.722,4.722,0,0,1-.044-2.461c.392-.853-1.953-5.781-1.953-5.781s.587-3.535.683-4.391-2.44-2.625-2.44-2.625l1.185-3.45,1.255-3.673s29.1.641,30.268,1.068c.567.206,1.085,1.382,1.471,2.543q.4,1.225.68,2.489s-.294,11.455.291,13.49a7.581,7.581,0,0,1,.389,3.108s-.68,4.069-.2,5.459a16.636,16.636,0,0,1,.49,4.072s1.953-.43,2.44.848S180.183,176.319,178.819,179Z" fill="#aacaf5"/><path d="M237.3,225.518c-.338-.051-1.951-6.1-1.853-8.195a42.091,42.091,0,0,1,.737-4.928c.2-.992.353-1.7.353-1.7l6.233.746s.082.746.183,1.792a41.239,41.239,0,0,1,.307,6.183c-.258,1.4,1.464,1.715,2.535,5.355S237.645,225.575,237.3,225.518Z" fill="#4d507f"/><path d="M229.1,191.307a8.807,8.807,0,0,0-.539,3.035c-.059,1-.046,1.84-.046,1.84s.147,4.391-1.708,6.85-4.344.161-5.37-4.066c-.711-2.939,1.17-6.154,2.383-7.844.533-.74.935-1.187.935-1.187S229.727,190.182,229.1,191.307Z" fill="#4d507f"/><path d="M231.907,89.53s-6.906-.588-7.15,3.32.363,6.917,5.651,7.395,3.381-10.639,3.381-10.639Z" fill="#575a89"/><path d="M244.687,91.491s6.774-1.159,6.725,1.735-5.171,6.655-5.171,6.655Z" fill="#575a89"/><path d="M232.162,89.53s-6.9-.588-7.148,3.32.361,6.917,5.648,7.395,3.383-10.639,3.383-10.639Z" opacity="0.15" style="isolation:isolate"/><path d="M245.262,91.491s6.774-1.159,6.725,1.735-5.174,6.655-5.174,6.655Z" opacity="0.15" style="isolation:isolate"/><path d="M233.85,88.422a22.031,22.031,0,0,0-5.3,3.315,1.236,1.236,0,0,0-.487.67,4.252,4.252,0,0,0,.013.675c-.041,1.13-1.6,1.226-2.3,2.066a2.516,2.516,0,0,0-.258,2.289c.232.763.673,1.435.951,2.181a5.912,5.912,0,0,1-.531,5.126,27.5,27.5,0,0,1-3,3.134c-1.288,1.461-2.079,3.837-1.054,5.544.626,1.046,1.773,1.591,2.443,2.6a5.8,5.8,0,0,1,.6,3.9,33.45,33.45,0,0,0-.551,4,8.722,8.722,0,0,0,3.319,6.7,11.883,11.883,0,0,0,6.779,2.4,4.861,4.861,0,0,0,2.515-.353,5.67,5.67,0,0,0,1.914-1.882,25.461,25.461,0,0,0,3.631-7.528,9.534,9.534,0,0,1,1.384-3.357,6.951,6.951,0,0,1,1.881-1.475l3.432-2.108c1.126-.692,2.36-1.534,2.657-2.91.335-1.56-.654-3.374.149-4.713a13.975,13.975,0,0,1,.977-1.13c.832-1.153.515-2.854-.075-4.174a12.162,12.162,0,0,0-1.855-2.953,8.342,8.342,0,0,1-1.757-2.4c-.273-.735-.283-1.563-.528-2.309-.515-1.554-1.912-2.5-2.85-3.792A28.585,28.585,0,0,0,243.8,88.6c-1.466-1.52-3.092-1.034-4.9-.975-.892.031-1.721-.331-2.6-.348C235.272,87.244,234.821,88,233.85,88.422Z" fill="#663d5c"/><path d="M245.54,91.13l-15.166-1.7s.054-.2.147-.565q.547-2.194.879-4.442c.389-2.713,6.058-3.408,6.058-3.408a7.454,7.454,0,0,1,7.238,4.015l.642,4.623Z" fill="#ff748e"/><path d="M248.411,109.127l-2.342,6.584-9.887,1.848s-11.569-2.73-6.225-8.432a18.18,18.18,0,0,0,1.721-2.111,9.709,9.709,0,0,0,1.245-2.433c.855-2.617-.474-3.888-.474-3.888s9.737-4.9,9.884.641a7.373,7.373,0,0,0,.984,3.512,8.755,8.755,0,0,0,1.193,1.6A11.754,11.754,0,0,0,248.411,109.127Z" fill="#ce828d"/><path d="M280.364,102.059a8.841,8.841,0,0,0-2.105,1.605c-.685.619-1.265,1.178-1.265,1.178l-1.61-5.835a8.557,8.557,0,0,0,1.087-.726c.384-.311.719-.678.719-.995,0-.743,1.515-7.008,2.639-4.6S280.851,102.059,280.364,102.059Z" fill="#ce828d"/><path d="M164.073,90.013l-10.639,6.852s-12.8-3.64-9.276-6.748c1.567-1.382,2.224-4.335,2.466-7.189a7.251,7.251,0,0,0,7.233,4.1c.482-.037.966-.034,1.448-.048,2.216-.068,4.252-3.659,4.638-4.4A33.855,33.855,0,0,0,164.073,90.013Z" opacity="0.1" style="isolation:isolate"/><path d="M175.5,140.421v.13c-.1.964-4.2,2.571-4.2,2.571s-18.843,2.569-20.5.848c-1.546-1.582-7.405-3.255-8.287-3.5l1.255-3.673s29.1.641,30.268,1.068C174.6,138.082,175.117,139.257,175.5,140.421Z" opacity="0.1" style="isolation:isolate"/><path d="M175.2,128.777s2.538,4.708.773,5.781-.389,4.388-.487,5.352-4.2,2.569-4.2,2.569-18.843,2.571-20.5.848-8.4-3.535-8.4-3.535a38.644,38.644,0,0,0-3.414-7.172c-2.149-3.428.683-9.746.683-9.746s-.683-4.066-2.146-5.247-3.412-12.3-3.893-15.621-6.738,1.178-6.738,1.178-7.908.537-9.565,0a.3.3,0,0,1-.093-.048c-1.232-.913,6.534-10.769,6.534-10.769s5.859-1.176,5.759-3.108c-.067-1.351,2.78-3.329,4.5-4.394.74-.461,1.268-.749,1.268-.749h2.342c.879,0,.49-1.5.49-1.5a3.742,3.742,0,0,0,2.734-.749c.977-.964,5.761,1.331,5.761,1.331a7.272,7.272,0,0,0,7.259,4.143c.482-.034.966-.031,1.448-.048,2.471-.073,4.715-4.521,4.715-4.521s6.983.494,11.853,3.922,9.861,13.383,9.861,13.383-7.323,9.961-8.5,9.749,1.363,4.818,1.363,4.818Z" fill="#dce6f2"/><path d="M134,84.871c-.273,1.009-.585,2.179-.688,2.679-.193.964-2.242,1.93-2.242,1.93s-1.956,2.888-1.76,3.425-1.659,2.569-2.443,4.5-8.972,5.784-8.972,5.784a2.587,2.587,0,0,1-.678-.048c-1.232-.913,6.534-10.769,6.534-10.769s5.859-1.176,5.759-3.108C129.44,87.914,132.287,85.936,134,84.871Z" opacity="0.1" style="isolation:isolate"/><path d="M135.619,80.352a10.153,10.153,0,0,0-1.227.664l-3.442-3.933s.438-.509,1.031-1.224C132.022,77.3,134.578,79.513,135.619,80.352Z" opacity="0.1" style="isolation:isolate"/><path d="M131.754,75.772,128.919,77.7a5.994,5.994,0,0,0-4,3.315,6.171,6.171,0,0,1-4.182,3.323l-1.951,3.535s-4.883,2.261-5.177,8.994,3.71,6.318,3.71,6.318,8.2-3.854,8.982-5.784,2.639-3.956,2.443-4.5,1.757-3.425,1.757-3.425,2.061-.966,2.244-1.93,1.172-4.414,1.172-4.414l1.855-2.122S131.071,77.484,131.754,75.772Z" fill="#dce6f2"/><path d="M190.52,139.647c-1.474-.136-5.731-.446-6.442.407-.054-.283-.093-.466-.093-.466l1-2.781s4.9.1,4.9.828A10.977,10.977,0,0,0,190.52,139.647Z" opacity="0.1" style="isolation:isolate"/><path d="M178.134,96.866l3.607,3.213,1.659,5.889s2.149,4.925,3.419,7.5a25.105,25.105,0,0,1,1.757,6.638,6.784,6.784,0,0,0,.879,2.569c.587.641,0,2.679,0,2.679a16.586,16.586,0,0,0,1.268,3.213c.585.859,0,4.818,0,4.818l.258,1.605s1.01,1.715.425,1.82-.392,2.261-.392,2.261-6.738-.749-7.029.537c0,0-1.074-3.213-.879-4.284s-1.368-3.956-1.368-3.956a3.775,3.775,0,0,1-.389-2.464c.294-1.286-1.27-4.925-1.27-4.925s-.294-3.213-.879-3-.977-1.39-1.074-2.035-2.149-4.925-2.149-4.925l-4.1-5.462Z" fill="#dce6f2"/><path d="M243.316,104.848a7.736,7.736,0,0,1-10.394-.266c.855-2.617-.474-3.888-.474-3.888s9.737-4.9,9.884.641A7.373,7.373,0,0,0,243.316,104.848Z" opacity="0.1" style="isolation:isolate"/><ellipse cx="8.312" cy="9.116" rx="8.312" ry="9.116" transform="translate(229.956 88.171)" fill="#ce828d"/><path d="M248.411,109.127l-2.342,6.584-9.887,1.848s-11.569-2.73-6.225-8.432a18.18,18.18,0,0,0,1.721-2.111c2.53,6.943,6.81,6.287,6.81,6.287,5.926-1.229,6.114-5.572,6.032-6.858A11.76,11.76,0,0,0,248.411,109.127Z" opacity="0.1" style="isolation:isolate"/><path d="M278.259,103.664c-.685.619-1.265,1.178-1.265,1.178l-1.61-5.835a8.557,8.557,0,0,0,1.087-.726A19.736,19.736,0,0,1,278.259,103.664Z" opacity="0.1" style="isolation:isolate"/><path d="M198.688,142.911s-.453.6-1.167,1.469a23.738,23.738,0,0,1-2.811-3.727c1.031-.593,1.781-1.065,1.781-1.065Z" opacity="0.1" style="isolation:isolate"/><path d="M278.426,105.914l-3.517,1.212s-5.125,2.885-5.857,4.239-12.742,5.62-12.742,5.62c.366,1.605-3.37,7.87-3.37,7.87s-.438,5.462-1.9,8.113c-1.288,2.32-.32,8.195-.057,9.639.034.2.057.319.057.319s-29.586,2.088-30.317.641a.91.91,0,0,1-.077-.24c-.4-1.789,2.02-7.429,2.788-8.271.8-.884-.338-6.906-.338-6.906s-7.279,5.219-8.524,7.629-13.986,7.952-13.986,7.952l-2.061,1.13s-4.393-4.657-3.88-5.863,4.267-2.716,4.267-2.716,7.908-6.584,8.5-6.988a5.417,5.417,0,0,0,1.17-1.365l.734-.565a6.3,6.3,0,0,1,1.9-1.2c1.389-.639,4.687-5.219,4.687-5.219s3.44-4.015,3.88-5.934a15.084,15.084,0,0,1,1.546-3.775,8.869,8.869,0,0,0,4.38-2.17c2.182-1.913,5.841-1.919,5.89-1.919,2.52,7.152,6.877,6.5,6.877,6.5,6.983-1.444,6-7.22,6-7.22s4.963-3.139,6.06-3.057,6.3.319,7.545,1.043,4.687-.641,4.687-.641a9.653,9.653,0,0,1,3.953-2.009,37.778,37.778,0,0,0,5.713-1.927s1.976-2.328,3.3-1.927S278.426,105.914,278.426,105.914Z" fill="#ff748e"/><path d="M251.047,142.936s-29.586,2.088-30.317.641a.908.908,0,0,1-.077-.24.547.547,0,0,1,.077-.079l4.762.506s2.157-3.88,3.053-6.129c0,0,3.169-6.1,3.169-8.11,0,0,14.133-.322,16.259-1.447,0,0,.394,13.846,1.546,14.64l1.466-.1C251.023,142.82,251.047,142.936,251.047,142.936Z" opacity="0.1" style="isolation:isolate"/><path d="M229.1,191.307a8.807,8.807,0,0,0-.539,3.035,19.045,19.045,0,0,1-4.1-.972,8.048,8.048,0,0,0-.644-2.261c.533-.74.935-1.187.935-1.187S229.727,190.182,229.1,191.307Z" opacity="0.1" style="isolation:isolate"/><path d="M242.956,213.232a21.533,21.533,0,0,1-6.769-.848c.2-.992.353-1.7.353-1.7l6.233.757S242.868,212.186,242.956,213.232Z" opacity="0.1" style="isolation:isolate"/><path d="M252.66,155.946a116.818,116.818,0,0,1-2.577,12.368s-1.391,5.858-1.319,7.505-1.031,11.687-1.031,11.687-1.245,5.14-.951,7.468-2.577,14.456-2.577,14.456l.147,3.131s-8.714.4-9.593-1.927l.366-2.73.732-7.548s.953-8.435.515-10.455-1.141-10.1-1.141-10.1l-.075,8.672s-1.317,2.732-2.783,3.374-1.685,1.7-3.221,1.848-4.687-.964-4.687-.964a7.769,7.769,0,0,0-.807-2.571c-.66-1.2,0-5.3,0-5.3s.585-2.73-.294-3.371-1.757-4.979-1.391-6.265a3.484,3.484,0,0,0-.116-1.413,66.6,66.6,0,0,1-1.44-6.559,9.2,9.2,0,0,1,.034-2.71,43.212,43.212,0,0,0,.291-8.76s-1.17-11.323,0-12.207l4.762.509s2.157-3.88,3.053-6.129c0,0,3.169-6.1,3.169-8.113,0,0,14.133-.319,16.259-1.444,0,0,.394,13.846,1.546,14.637l1.523-.1A29.04,29.04,0,0,1,252.66,155.946Z" fill="#575a89"/><path d="M245.731,186.014a2.092,2.092,0,0,1-.237.848,8.95,8.95,0,0,1-1.917,2.987c-.879.565-4.831-1.526-4.9-2.289a5.8,5.8,0,0,1,.18-1.543c.093-.424.186-.746.186-.746s5.493,1.368,6.442.723h.015C245.648,185.876,245.718,185.9,245.731,186.014Z" fill="#ce828d"/><path d="M235.246,122.69c-.023,1.068,0,3.529,0,5.267,0,1.085.018,1.888.018,1.888h-3.842s-.036-.735-.075-1.888c-.044-1.331-.09-3.213-.082-5.163,0-.495,0-.992.015-1.489.026-1.441.09-2.848.214-4.027.474-4.58-3.54-9.607-3.54-9.607.925-1.2,3.35-.565,3.35-.565s1.361,4.287,2.42,7.46a36.237,36.237,0,0,1,1.474,6.516,6.672,6.672,0,0,1,.067,1.113C235.259,122.3,235.254,122.464,235.246,122.69Z" opacity="0.1" style="isolation:isolate"/><path d="M235.54,122.69c-.023,1.068,0,3.529,0,5.267,0,1.085.018,1.888.018,1.888h-3.844s-.033-.735-.072-1.888c-.044-1.331-.09-3.213-.082-5.163,0-.495,0-.992.015-1.489.026-1.441.09-2.848.214-4.027.474-4.58-3.543-9.607-3.543-9.607.928-1.2,3.35-.565,3.35-.565s1.358,4.287,2.42,7.46a36.451,36.451,0,0,1,1.474,6.516,6.672,6.672,0,0,1,.067,1.113C235.553,122.3,235.545,122.464,235.54,122.69Z" fill="#575a89"/><path d="M251.449,119.85c-.07.387-.134,1.023-.2,1.766-.139,1.5-.286,3.442-.515,4.7-.129.684-.286,1.159-.479,1.246l-.943.4-1.056.444-1.386.24.258-.684c.165-.427.389-1.017.624-1.645a27.214,27.214,0,0,0,1.157-3.5c.018-.189.077-.624.147-1.2.062-.5.129-1.113.18-1.766.147-1.777.183-3.866-.327-4.942-.915-1.927-3.092-9.161-3.092-9.161a1.986,1.986,0,0,1,2.422-1.382s1.987,7.169,2.02,8.135S251.742,118.242,251.449,119.85Z" opacity="0.1" style="isolation:isolate"/><path d="M251.155,119.85c-.07.387-.134,1.023-.2,1.766-.137,1.5-.283,3.442-.515,4.7-.129.684-.286,1.159-.479,1.246l-.922.4a4.26,4.26,0,0,0-1.046.684l-1.528.26s.237-.526.4-.944.389-1.017.624-1.645a26.8,26.8,0,0,0,1.157-3.5c.018-.189.077-.624.147-1.2.062-.5.129-1.113.183-1.766.147-1.777.18-3.866-.33-4.942-.912-1.927-3.092-9.161-3.092-9.161a1.986,1.986,0,0,1,2.422-1.382s1.987,7.169,2.023,8.135S251.449,118.242,251.155,119.85Z" fill="#575a89"/><path d="M235.561,122.215c0,.085-.015.249-.021.475l-3.981.1c0-.495,0-.992.015-1.489l3.919-.2A6.673,6.673,0,0,1,235.561,122.215Z" fill="#fff"/><path d="M235.561,129.845h-3.847s-.033-.735-.072-1.888h3.9C235.553,129.042,235.561,129.845,235.561,129.845Z" fill="#fff"/><path d="M251.155,119.85c-.07.387-.134,1.023-.2,1.766h-2.177c.062-.5.129-1.113.183-1.766Z" fill="#fff"/><path d="M250.428,126.313c-.129.684-.286,1.159-.479,1.246l-.922.4h-2.177c.165-.427.389-1.017.624-1.645Z" fill="#fff"/><path d="M166.021,96.866s.9,8.681,3.723,9.537,1.412-3.213,1.412-3.213l-2.391-3.309Z" opacity="0.05" style="isolation:isolate"/><path d="M147.273,112.469s10.732,11.758,15.38,9.477S152.285,120.9,147.273,112.469Z" opacity="0.05" style="isolation:isolate"/><path d="M159.474,128.4s7.158.472,9.292-2.088S159.474,128.4,159.474,128.4Z" opacity="0.05" style="isolation:isolate"/><path d="M154.338,138.4c-.314-.246,12.968-.7,16.563-3.673S162.939,145.152,154.338,138.4Z" opacity="0.05" style="isolation:isolate"/><path d="M131.741,92.141s2.834,3.154,3.092,5.7S131.741,92.141,131.741,92.141Z" opacity="0.05" style="isolation:isolate"/><path d="M138.932,94.879s-.258,8.373,2.883,9.963S137.9,101.206,138.932,94.879Z" opacity="0.05" style="isolation:isolate"/><path d="M179.927,117.349s5.609-2.543,6.509-.89-.773,1.933-.773,1.933Z" opacity="0.05" style="isolation:isolate"/><path d="M187.212,125.544c-2.319,1.591-4.058,1.452-3.891,2.86s.374.862,1.94.5S187.212,125.544,187.212,125.544Z" opacity="0.05" style="isolation:isolate"/><path d="M188.92,132.094s-2.791,2.639-3.664,2.781S188.92,132.094,188.92,132.094Z" opacity="0.05" style="isolation:isolate"/><path d="M228.547,153.6c-.366-.4,12.069,0,15.022-.848a1.826,1.826,0,0,1-1.371,2.959c-2.868.565-15.576,1.413-15.576,1.413S230.469,155.714,228.547,153.6Z" opacity="0.1" style="isolation:isolate"/><path d="M225.22,170.5a15.9,15.9,0,0,1-3.35,3.3,66.6,66.6,0,0,1-1.44-6.558l2.685-1.385C223.028,165.85,226.12,168.806,225.22,170.5Z" opacity="0.1" style="isolation:isolate"/><path d="M212.015,127.429s8.323-1.509,10.886-4.634C222.9,122.795,221.933,128.149,212.015,127.429Z" opacity="0.1" style="isolation:isolate"/><path d="M209.93,132.764a5.683,5.683,0,0,0,3.468,0C215.578,132.2,209.93,132.764,209.93,132.764Z" opacity="0.1" style="isolation:isolate"/><path d="M228.245,132.094s-4.672,4.278-3.533,5.219S228.245,132.094,228.245,132.094Z" opacity="0.1" style="isolation:isolate"/><path d="M228.245,124.174s-4.043-.088-3.025,2.139S228.245,124.174,228.245,124.174Z" opacity="0.1" style="isolation:isolate"/><path d="M235.857,95a1.679,1.679,0,0,0,.716-.26,4.694,4.694,0,0,1,3.265-.365c1.569.4,2.876,1.6,4.406,2.156.881.322,2.061.3,2.5-.6a2.84,2.84,0,0,0-.515-2.521,9.226,9.226,0,0,0-2.907-3.532,7.6,7.6,0,0,0-2.345-.8,14.218,14.218,0,0,0-4.96-.376c-1.288.187-5.017,1.13-4.429,3.3.294,1.088,1.33.935,2.105,1.305C234.427,93.667,235.035,95.026,235.857,95Z" opacity="0.1" style="isolation:isolate"/><path d="M235.857,94.362a1.753,1.753,0,0,0,.716-.26,4.676,4.676,0,0,1,3.265-.365c1.569.4,2.876,1.6,4.406,2.156.881.322,2.061.3,2.5-.6a2.839,2.839,0,0,0-.515-2.521,9.226,9.226,0,0,0-2.907-3.532,7.527,7.527,0,0,0-2.345-.8,14.287,14.287,0,0,0-4.96-.379c-1.288.187-5.017,1.13-4.429,3.306.294,1.088,1.33.932,2.105,1.305C234.427,93.023,235.035,94.376,235.857,94.362Z" fill="#663d5c"/><path d="M245.54,91.13l-15.166-1.7s.054-.2.147-.565c3.182-.924,11.049-2.721,14.816.777Z" opacity="0.1" style="isolation:isolate"/><path d="M229.137,89.657s13.883-5,17.447,2C246.584,91.635,239.2,92.825,229.137,89.657Z" fill="#575a89"/><path d="M235.7,174.771a.5.5,0,0,1-.691-.254,1.752,1.752,0,0,1-.106-.882l.07-1.339a25.965,25.965,0,0,1,.791-6.053,15.108,15.108,0,0,1,3.092-5.488" opacity="0.1" style="isolation:isolate"/><path d="M233.592,134.3s6.957-1.978,8.6-1.289,1.087,1.76,0,1.868S233.592,134.3,233.592,134.3Z" opacity="0.1" style="isolation:isolate"/><path d="M231.559,139.591c1.546,1.178,13.981,1.178,13.981,1.178Z" opacity="0.1" style="isolation:isolate"/><path d="M174.375,143.123s.515,1.393-2.8,2.783S174.375,143.123,174.375,143.123Z" opacity="0.1" style="isolation:isolate"/><path d="M171.886,153.725s-4.339-.107-2.852,2.142S171.886,153.725,171.886,153.725Z" opacity="0.1" style="isolation:isolate"/><path d="M145.23,144.329s6.833,4.041,9.665,4.47S149.721,150.571,145.23,144.329Z" opacity="0.1" style="isolation:isolate"/><path d="M151.087,177.387s.34,1.927,3.247,2.891,5.13.215,5.153,0S151.087,177.387,151.087,177.387Z" opacity="0.1" style="isolation:isolate"/><path d="M158.85,219.754s3.589,1.978,4.393,0" opacity="0.1" style="isolation:isolate"/><path d="M183.53,180.759s-.593,2.1-1.685,2.17" opacity="0.1" style="isolation:isolate"/><path d="M246.733,94.645c-.433.9-1.616.927-2.5.6-1.531-.565-2.834-1.752-4.406-2.156a4.694,4.694,0,0,0-3.265.365,1.664,1.664,0,0,1-.716.26c-.822.014-1.43-1.337-2.164-1.7-.773-.373-1.8-.22-2.105-1.308a1.123,1.123,0,0,1-.028-.127,1.614,1.614,0,0,0,.028.771c.294,1.088,1.33.932,2.105,1.305.734.353,1.342,1.7,2.164,1.7a1.745,1.745,0,0,0,.716-.26,4.676,4.676,0,0,1,3.265-.365c1.569.4,2.876,1.6,4.406,2.156.881.319,2.061.3,2.5-.6a1.637,1.637,0,0,0,.116-1A1.382,1.382,0,0,1,246.733,94.645Z" opacity="0.1" style="isolation:isolate"/><path d="M245.731,186.014a2.092,2.092,0,0,1-.237.848l-6.643-.848c.093-.424.186-.746.186-.746s5.493,1.368,6.442.723h.015Z" opacity="0.1" style="isolation:isolate"/><path d="M238.794,184.562c-.026.082-.131,1.1-.131,1.1l7.38.935v-.848Z" fill="#575a89"/><ellipse cx="7.898" cy="1.19" rx="7.898" ry="1.19" transform="translate(23.958 191.129)" fill="#25d4dc" opacity="0.1" style="isolation:isolate"/><ellipse cx="7.898" cy="1.19" rx="7.898" ry="1.19" transform="translate(54.211 194.494)" fill="#25d4dc" opacity="0.1" style="isolation:isolate"/><ellipse cx="7.898" cy="1.19" rx="7.898" ry="1.19" transform="translate(89.844 189.939)" fill="#25d4dc" opacity="0.1" style="isolation:isolate"/><ellipse cx="5.615" cy="0.845" rx="5.615" ry="0.845" transform="translate(44.386 204.416)" fill="#25d4dc" opacity="0.1" style="isolation:isolate"/><ellipse cx="5.615" cy="0.845" rx="5.615" ry="0.845" transform="translate(75.783 203.571)" fill="#25d4dc" opacity="0.1" style="isolation:isolate"/><path d="M20.893,183.782s-11.08-39.82,1.734-55.768c9.583-11.93,20.459-10.5,25.331-9.028a9.249,9.249,0,0,1,5.81,5.3c1.7,4.029,1.394,10.571-10.626,18.2C23.013,155.264,21.756,172.8,21.756,172.8Z" fill="#25d4dc"/><path d="M46.224,124.648s-32.649,11.2-25.331,59.148" fill="none" stroke="#565987" stroke-miterlimit="10" stroke-width="0.27"/><path d="M27.154,128.646s4.5,3.323,3.066,8.316" fill="none" stroke="#565987" stroke-miterlimit="10" stroke-width="0.27"/><path d="M42.949,131.6s-2.749-3.066-6.094-1.376" fill="none" stroke="#565987" stroke-miterlimit="10" stroke-width="0.27"/><path d="M30.042,147.025s-4.826-2.687-6.073.678" fill="none" stroke="#565987" stroke-miterlimit="10" stroke-width="0.27"/><path d="M18.1,152.622s3.625-.316,3.69,1.585" fill="none" stroke="#565987" stroke-miterlimit="10" stroke-width="0.27"/><path d="M20.447,184.1s12.971-28.933,16.535-28.308c1.693.3,2.474,2.128,2.834,3.956a12.673,12.673,0,0,1-.706,7.045A29.6,29.6,0,0,1,20.447,184.1Z" fill="#25d4dc"/><path d="M36.886,161.283s-13.618,21.654-16.249,22.606" fill="none" stroke="#565987" stroke-miterlimit="10" stroke-width="0.27"/><line x1="3.18" transform="translate(34.959 164.665)" fill="none" stroke="#565987" stroke-miterlimit="10" stroke-width="0.258"/><line x1="4.981" y2="0.235" transform="translate(29.349 172.586)" fill="none" stroke="#565987" stroke-miterlimit="10" stroke-width="0.27"/><line x2="0.541" y2="2.846" transform="translate(31.3 166.248)" fill="none" stroke="#565987" stroke-miterlimit="10" stroke-width="0.27"/><line x2="0.095" y2="2.588" transform="translate(26.002 174.909)" fill="none" stroke="#565987" stroke-miterlimit="10" stroke-width="0.27"/><path d="M20.831,184.1S7.86,155.165,4.3,155.79c-1.693.3-2.474,2.128-2.834,3.956a12.7,12.7,0,0,0,.706,7.045A29.6,29.6,0,0,0,20.831,184.1Z" fill="#25d4dc"/><path d="M4.391,161.283s13.615,21.654,16.233,22.606" fill="none" stroke="#565987" stroke-miterlimit="10" stroke-width="0.27"/><line x2="3.18" transform="translate(3.139 164.665)" fill="none" stroke="#565987" stroke-miterlimit="10" stroke-width="0.258"/><line x2="4.981" y2="0.235" transform="translate(6.948 172.586)" fill="none" stroke="#565987" stroke-miterlimit="10" stroke-width="0.27"/><line x1="0.541" y2="2.846" transform="translate(9.437 166.248)" fill="none" stroke="#565987" stroke-miterlimit="10" stroke-width="0.27"/><line x1="0.095" y2="2.588" transform="translate(15.18 174.909)" fill="none" stroke="#565987" stroke-miterlimit="10" stroke-width="0.27"/><path d="M84.487,202.491a2.492,2.492,0,0,0,.74-1.218,1.126,1.126,0,0,0-.515-1.243c-.474-.2-.982.161-1.366.526s-.822.777-1.324.7a2.341,2.341,0,0,0,.624-2.071.912.912,0,0,0-.173-.421c-.258-.308-.742-.175-1.056.068a4.505,4.505,0,0,0-1.288,3.606,7.527,7.527,0,0,1-.018-1.486,1.579,1.579,0,0,0-.515-1.314,1.436,1.436,0,0,0-.773-.2,1.514,1.514,0,0,0-1.26.393,1.479,1.479,0,0,0,.049,1.7,4.674,4.674,0,0,0,1.3,1.13,3.037,3.037,0,0,1,.933.975,1.47,1.47,0,0,1,.07.175h2.821A7.842,7.842,0,0,0,84.487,202.491Z" fill="#25d4dc"/><path d="M35.058,190.835a2.512,2.512,0,0,0,.737-1.221,1.127,1.127,0,0,0-.515-1.246c-.474-.2-.979.161-1.363.526s-.825.78-1.327.7a2.338,2.338,0,0,0,.624-2.071.912.912,0,0,0-.173-.421c-.258-.308-.74-.175-1.056.068a4.514,4.514,0,0,0-1.288,3.606,7.5,7.5,0,0,1-.018-1.484,1.588,1.588,0,0,0-.515-1.317,1.436,1.436,0,0,0-.773-.2,1.523,1.523,0,0,0-1.26.393,1.479,1.479,0,0,0,.052,1.7,5.238,5.238,0,0,0,1.288,1.147,3.025,3.025,0,0,1,.933.972,1.153,1.153,0,0,1,.07.175h2.821A7.86,7.86,0,0,0,35.058,190.835Z" fill="#25d4dc"/><path d="M51.531,202.491a2.492,2.492,0,0,0,.74-1.218,1.126,1.126,0,0,0-.515-1.243c-.474-.2-.982.161-1.366.526s-.825.777-1.327.7a2.35,2.35,0,0,0,.626-2.071.913.913,0,0,0-.175-.421c-.258-.308-.74-.175-1.054.068a4.505,4.505,0,0,0-1.288,3.606,7.153,7.153,0,0,1-.018-1.486,1.579,1.579,0,0,0-.515-1.314,1.436,1.436,0,0,0-.773-.2,1.511,1.511,0,0,0-1.26.393,1.479,1.479,0,0,0,.049,1.7,4.638,4.638,0,0,0,1.3,1.13,3.037,3.037,0,0,1,.933.975,1.127,1.127,0,0,1,.067.175h2.834A7.848,7.848,0,0,0,51.531,202.491Z" fill="#25d4dc"/><path d="M98.254,178.93s1.056,1.517-.49,3.809-2.821,4.239-2.306,5.651c0,0,2.334-4.239,4.233-4.312S100.341,181.493,98.254,178.93Z" fill="#25d4dc"/><path d="M98.254,178.93a1.927,1.927,0,0,1,.214.475c1.855,2.388,2.834,4.617,1.062,4.674-1.659.051-3.651,3.3-4.123,4.126a1.4,1.4,0,0,0,.057.187s2.334-4.239,4.234-4.312S100.341,181.493,98.254,178.93Z" opacity="0.1" style="isolation:isolate"/><path d="M100.22,180.863a2.047,2.047,0,0,1-.121.969,2.028,2.028,0,0,1-.124-.969c0-.534.07-.283.137-.283S100.22,180.329,100.22,180.863Z" fill="#ffd037"/><path d="M100.893,181.493c-.428.254-.8.41-.832.345s.289-.325.716-.565.258-.071.291,0S101.323,181.247,100.893,181.493Z" fill="#ffd037"/><path d="M92.663,178.93s-1.056,1.517.49,3.809,2.834,4.239,2.319,5.651c0,0-2.334-4.239-4.233-4.312S90.586,181.493,92.663,178.93Z" fill="#25d4dc"/><path d="M92.663,178.93a1.983,1.983,0,0,0-.216.475c-1.853,2.388-2.834,4.617-1.059,4.674,1.659.051,3.651,3.3,4.123,4.126a1.4,1.4,0,0,1-.057.187s-2.334-4.239-4.234-4.312S90.586,181.493,92.663,178.93Z" opacity="0.1" style="isolation:isolate"/><path d="M90.7,180.863a2.047,2.047,0,0,0,.121.969,2.028,2.028,0,0,0,.124-.969c0-.534-.07-.283-.137-.283S90.7,180.329,90.7,180.863Z" fill="#ffd037"/><path d="M90.022,181.493c.428.254.8.41.832.345s-.289-.325-.716-.565-.258-.071-.291,0S89.594,181.247,90.022,181.493Z" fill="#ffd037"/><path d="M91.034,188.193s2.958-.1,3.85-.8,4.55-1.526,4.772-.41,4.447,5.553,1.105,5.584S93,192,92.111,191.406,91.034,188.193,91.034,188.193Z" fill="#a8a8a8"/><path d="M100.821,192.18c-3.35.031-7.761-.565-8.65-1.164-.678-.452-.948-2.077-1.031-2.826h-.1s.186,2.617,1.077,3.213,5.311,1.192,8.65,1.164c.964,0,1.288-.384,1.288-.941C101.908,191.965,101.539,192.174,100.821,192.18Z" opacity="0.2" style="isolation:isolate"/></g></svg>